<?xml version="1.0" standalone="no"?>
<!DOCTYPE svg PUBLIC "-//W3C//DTD SVG 20010904//EN"
 "http://www.w3.org/TR/2001/REC-SVG-20010904/DTD/svg10.dtd">
<svg version="1.0" xmlns="http://www.w3.org/2000/svg"
 width="3264.000000pt" height="3264.000000pt" viewBox="0 0 3264.000000 3264.000000"
 preserveAspectRatio="xMidYMid meet">
<metadata>
Created by potrace 1.14, written by Peter Selinger 2001-2017
</metadata>
<g transform="translate(0.000000,3264.000000) scale(0.100000,-0.100000)"
fill="#000000" stroke="none">
<path d="M0 30986 c0 -1567 1 -1655 17 -1660 10 -2 32 -7 48 -10 65 -13 110
-24 110 -26 0 -1 9 -3 20 -5 10 -2 28 -8 40 -13 11 -5 40 -16 65 -23 100 -28
155 -68 166 -118 13 -56 18 -65 69 -116 50 -51 52 -54 58 -123 4 -40 3 -82 -3
-97 -5 -14 -10 -45 -10 -68 0 -34 -11 -59 -60 -133 -62 -95 -96 -124 -216
-183 -96 -47 -181 -56 -261 -27 l-43 15 0 -14199 0 -14200 3054 0 c2988 0
3055 0 3061 19 3 10 15 21 26 24 11 3 23 15 26 26 9 36 18 23 17 -24 l-2 -45
5037 0 c4903 1 5035 1 4986 19 -177 65 -226 98 -263 179 -32 71 -36 123 -12
190 10 29 24 87 30 130 6 42 18 91 27 107 8 17 19 73 24 125 10 90 33 193 49
215 8 11 23 85 41 204 6 41 17 88 24 105 7 17 16 62 20 100 4 39 17 93 29 121
13 28 29 88 36 135 15 97 22 121 44 143 9 9 21 41 27 72 6 31 19 70 29 88 10
18 25 57 33 87 8 30 22 72 30 92 27 65 39 189 34 345 -6 175 -21 287 -42 320
-9 14 -22 72 -29 137 -7 62 -18 122 -25 134 -14 27 -41 166 -41 214 0 20 -4
39 -9 42 -12 8 -28 82 -47 216 -8 57 -25 134 -38 170 -13 36 -29 108 -36 159
-7 52 -16 102 -20 110 -34 63 -43 475 -14 626 27 146 33 199 40 335 3 74 13
173 21 220 8 47 18 108 23 137 5 29 13 60 18 70 5 10 12 53 15 95 3 43 13 92
22 110 29 56 85 219 85 247 0 19 -9 32 -30 45 -26 15 -54 18 -188 17 -86 0
-184 -5 -217 -11 -136 -23 -619 -8 -714 22 -22 7 -74 8 -148 3 -99 -6 -117 -4
-133 10 -22 20 -39 21 -109 6 -29 -6 -74 -11 -100 -11 -25 0 -71 -7 -101 -15
-74 -21 -251 -35 -297 -24 -21 4 -45 17 -54 27 -24 30 -106 42 -305 47 -210 4
-197 2 -342 54 -62 23 -130 41 -151 41 -21 0 -57 6 -79 14 -30 11 -56 12 -99
6 -75 -11 -84 -15 -106 -48 -21 -30 -19 -29 -179 -31 -121 -1 -129 -4 -124
-46 3 -24 -2 -39 -21 -61 -17 -19 -27 -25 -30 -16 -3 6 -10 12 -18 12 -8 0
-12 11 -10 30 1 16 -1 28 -5 25 -4 -3 -13 2 -20 11 -7 8 -19 13 -27 10 -8 -3
-12 -2 -9 2 5 8 -78 47 -114 54 -8 2 -18 7 -21 11 -6 8 -117 43 -159 51 -8 2
-15 8 -15 14 0 23 -24 33 -75 30 -49 -3 -54 -6 -61 -30 -4 -17 -2 -34 7 -46 7
-11 10 -22 7 -26 -3 -3 -1 -6 5 -6 16 0 10 -109 -8 -140 -8 -14 -13 -32 -11
-40 2 -10 -2 -9 -12 4 -13 18 -14 16 -20 -20 -4 -21 -27 -72 -52 -113 -37 -61
-53 -79 -92 -98 -43 -22 -57 -24 -138 -18 -172 11 -239 38 -265 108 -7 18 -23
58 -37 90 -13 32 -27 79 -29 105 -10 97 -12 128 -13 158 -1 25 -6 33 -26 36
-13 3 -22 2 -20 -2 7 -12 -41 -18 -58 -8 -10 5 -18 4 -22 -2 -10 -17 -25 -1
-25 27 0 18 -4 24 -15 19 -12 -4 -13 -2 -6 13 7 13 6 24 -3 36 -7 10 -11 27
-8 37 2 10 1 34 -2 53 -6 31 -9 34 -26 25 -11 -6 -20 -17 -20 -24 0 -9 -16
-17 -40 -21 -22 -4 -40 -11 -40 -16 0 -5 -19 -9 -42 -9 -57 0 -181 72 -203
117 -19 40 -51 63 -88 63 -15 0 -26 4 -23 9 3 5 -1 14 -9 21 -8 7 -15 17 -15
22 0 19 -30 39 -59 40 -24 1 -33 9 -50 43 -20 40 -20 75 0 75 24 0 5 28 -23
35 -38 9 -34 7 -73 25 -16 7 -32 14 -35 15 -3 1 -13 5 -24 10 -12 5 -21 3 -27
-6 -6 -10 -9 -11 -9 -1 0 8 -10 11 -32 7 -42 -8 -53 -16 -37 -26 10 -6 11 -9
2 -9 -7 0 -13 -7 -13 -15 0 -8 -6 -15 -12 -16 -7 0 -23 -2 -35 -3 -22 -3 -27
4 -24 31 1 6 -8 14 -19 18 -14 5 -18 10 -12 18 15 19 6 62 -20 90 -84 92 -91
97 -141 111 -29 8 -65 17 -80 20 -15 4 -35 15 -45 26 -9 11 -21 20 -27 20 -6
0 -22 8 -35 17 -14 10 -31 18 -38 19 -7 2 -20 8 -29 16 -9 7 -21 13 -27 14 -6
0 -20 2 -32 2 -23 2 -108 77 -117 103 -5 16 -98 68 -133 75 -44 8 -156 65
-184 94 -3 3 -24 18 -48 33 -24 15 -45 34 -48 42 -3 7 -12 11 -20 8 -8 -3 -20
0 -27 6 -7 6 -28 11 -45 13 -18 1 -32 5 -32 8 0 4 -18 17 -40 29 -28 16 -47
37 -62 68 -12 26 -31 48 -45 54 -32 12 -36 11 -27 -3 6 -10 4 -10 -7 -3 -8 6
-27 12 -44 13 -16 2 -38 12 -47 24 -10 11 -18 16 -18 12 -1 -5 -7 5 -14 21
-15 34 -17 31 -39 -57 -8 -32 -10 -59 -5 -60 5 -2 -3 -21 -18 -43 -17 -25 -29
-60 -33 -95 -7 -53 -24 -99 -43 -111 -11 -7 -61 -142 -90 -244 -11 -38 -31
-83 -44 -98 -14 -17 -24 -42 -24 -60 0 -18 -10 -48 -21 -67 -12 -19 -30 -64
-40 -99 -10 -35 -25 -71 -32 -80 -8 -9 -20 -34 -27 -56 -7 -22 -28 -71 -47
-110 -18 -38 -33 -80 -33 -93 0 -12 -9 -41 -21 -64 -12 -23 -32 -76 -45 -117
-50 -164 -84 -253 -133 -353 -28 -57 -51 -108 -51 -114 0 -13 -86 -181 -110
-214 -11 -16 -20 -33 -20 -39 0 -6 -15 -28 -33 -48 -18 -21 -38 -49 -45 -63
-7 -14 -28 -50 -47 -80 -30 -48 -50 -84 -108 -190 -37 -67 -58 -109 -78 -152
-12 -27 -25 -48 -29 -48 -8 0 -25 -40 -35 -83 -5 -27 -59 -154 -105 -253 -11
-22 -26 -60 -35 -83 -8 -23 -23 -54 -33 -69 -10 -15 -24 -53 -31 -84 -7 -31
-17 -58 -22 -60 -6 -2 -23 -39 -39 -83 -15 -44 -47 -129 -70 -190 -23 -60 -48
-130 -55 -155 -7 -25 -34 -90 -60 -145 -25 -55 -60 -143 -77 -195 -17 -52 -39
-106 -48 -120 -10 -14 -32 -65 -49 -113 -17 -48 -35 -97 -41 -107 -6 -11 -28
-75 -49 -142 -22 -68 -55 -161 -74 -208 -19 -47 -52 -138 -72 -204 -34 -106
-37 -127 -33 -199 4 -64 9 -83 24 -94 95 -69 144 -129 164 -202 12 -47 36 -61
99 -61 67 0 101 -18 121 -65 20 -46 16 -83 -13 -140 -9 -16 -20 -64 -25 -106
-13 -100 -23 -119 -67 -119 -28 0 -39 7 -62 39 -39 54 -55 62 -135 66 -42 2
-76 9 -84 17 -7 7 -16 46 -19 88 -4 41 -8 85 -11 97 -6 32 -89 91 -153 109
-80 22 -98 33 -104 63 -3 15 -20 42 -36 61 -22 24 -29 41 -26 55 4 11 9 39 12
62 5 42 4 43 -59 103 -56 52 -138 162 -138 186 0 4 -27 35 -60 70 -33 34 -60
71 -60 81 0 34 -30 63 -76 74 -51 13 -73 39 -81 96 -4 29 0 44 15 63 l20 25
37 -20 c27 -14 45 -34 64 -75 30 -63 36 -69 61 -63 10 3 43 0 73 -7 45 -9 63
-19 95 -54 34 -37 41 -52 47 -102 3 -33 8 -64 10 -71 4 -13 83 -28 93 -18 4 3
7 30 7 59 1 45 6 58 35 93 29 35 34 47 32 84 -2 34 3 52 22 78 15 19 26 41 26
48 0 7 11 52 25 99 14 47 25 98 26 113 0 14 11 46 24 71 53 98 66 134 64 174
-1 26 8 65 25 106 15 36 38 96 52 134 13 38 31 80 39 92 8 13 18 49 21 81 4
37 15 69 29 89 13 16 26 48 29 69 4 21 13 62 22 90 8 29 17 62 19 74 10 43 13
57 23 96 6 22 13 67 17 99 3 33 13 72 20 87 8 15 17 41 20 58 8 47 33 116 77
213 22 49 41 111 44 140 3 29 14 71 24 93 10 22 30 76 43 120 22 72 108 264
171 385 13 25 27 67 30 93 14 92 46 170 103 244 30 40 59 89 65 110 5 21 20
52 33 68 12 17 26 45 29 62 4 18 21 49 38 70 76 96 95 146 104 277 5 79 9 96
33 126 15 19 42 44 58 55 35 23 63 73 63 113 0 15 4 42 9 60 6 21 6 53 -1 92
-10 51 -9 62 5 82 10 13 24 33 33 45 17 24 19 82 9 221 -8 105 -20 154 -50
207 -13 22 -26 51 -30 65 -4 14 -18 43 -32 65 -103 168 -126 221 -153 356 -31
154 -72 294 -114 396 -15 34 -31 99 -37 145 -6 46 -19 97 -29 114 -10 17 -21
47 -24 65 -12 58 -58 161 -102 226 -39 56 -41 65 -34 100 6 24 21 48 41 65 31
26 33 32 39 117 5 76 10 95 33 124 22 29 32 55 46 122 1 3 1 16 1 30 0 36 31
59 127 94 123 45 202 100 262 182 64 87 90 100 205 103 104 3 167 22 309 90
52 25 101 46 109 46 9 0 27 9 42 21 17 14 56 25 117 34 128 19 330 80 428 128
158 79 200 191 93 246 -28 15 -162 1 -292 -30 -104 -25 -253 -39 -515 -49
-110 -4 -220 -12 -243 -17 -59 -14 -79 -7 -86 29 -3 17 -4 33 -2 35 2 3 37 11
77 20 100 20 142 45 161 95 4 8 17 18 30 21 13 3 50 15 83 27 33 12 71 24 85
27 14 2 43 13 66 23 22 11 43 20 47 20 4 0 24 11 45 25 20 13 57 31 82 40 25
9 56 26 70 39 43 40 113 82 175 105 33 13 78 31 100 41 22 9 55 21 73 25 19 4
59 22 90 40 69 41 111 48 164 29 51 -18 151 -18 186 0 15 7 59 17 97 20 96 9
172 24 220 43 22 9 74 19 115 24 204 23 259 30 310 43 30 8 98 19 150 26 113
14 170 27 170 40 0 6 -1 10 -2 11 -78 16 -455 -1 -542 -25 -28 -8 -91 -19
-141 -25 -49 -6 -137 -22 -195 -36 -280 -64 -377 -57 -396 29 -36 174 -233
246 -439 163 -33 -14 -94 -33 -135 -42 -41 -10 -83 -23 -95 -31 -11 -7 -70
-22 -132 -33 -61 -11 -128 -27 -148 -35 -57 -24 -217 -66 -250 -66 -49 0 -145
-28 -208 -61 -36 -18 -90 -35 -140 -44 -45 -7 -107 -22 -137 -34 -30 -12 -63
-21 -73 -21 -10 0 -35 -9 -55 -19 -21 -11 -67 -25 -103 -32 -53 -11 -70 -20
-101 -52 -20 -21 -45 -56 -55 -77 -10 -21 -30 -46 -44 -56 -15 -10 -34 -29
-43 -43 -8 -14 -35 -47 -59 -72 -24 -25 -49 -60 -56 -77 -17 -42 -29 -40 -37
4 -10 52 4 144 26 179 31 47 49 91 57 132 11 64 6 364 -7 428 -20 103 -62 270
-69 280 -4 6 -8 42 -10 80 -2 74 -23 194 -42 242 -6 15 -22 69 -35 118 -13 50
-26 97 -28 105 -3 8 -11 44 -20 80 -8 36 -30 108 -50 160 -67 183 -129 377
-170 535 -33 130 -58 211 -71 231 -7 12 -21 48 -31 80 -9 32 -27 69 -39 81
-18 19 -23 39 -29 110 -3 48 -16 125 -27 171 -12 50 -20 120 -21 174 0 74 -5
103 -29 164 -30 77 -47 214 -28 214 6 0 8 9 4 20 -4 13 -2 20 7 20 13 0 64 95
74 140 11 47 21 335 13 364 -5 15 -8 31 -7 35 0 3 0 11 -1 16 0 6 -3 64 -5
131 -3 71 -11 139 -20 165 -21 60 -20 128 4 183 10 25 18 46 15 46 -2 0 0 14
5 32 9 28 6 35 -26 66 -35 34 -39 65 -10 84 8 5 7 8 -2 8 -8 0 -10 6 -5 18 4
9 7 55 7 102 -1 47 -2 239 -3 427 0 295 -3 347 -16 374 -14 26 -15 43 -6 108
19 145 38 219 43 165 2 -34 4 -39 18 -64 14 -24 15 -60 11 -262 0 -37 -5 -70
-11 -73 -5 -3 -9 -25 -8 -48 l1 -42 7 45 7 45 1 -37 c1 -21 7 -38 13 -38 5 0
7 -5 4 -10 -3 -6 -3 -31 1 -56 5 -33 9 -42 16 -33 8 11 9 10 5 -3 -8 -25 9
-179 21 -187 5 -3 10 -53 11 -110 1 -58 7 -111 13 -118 7 -9 7 -17 -3 -29 -10
-12 -10 -17 0 -23 10 -7 10 -23 -1 -82 -8 -48 -10 -92 -5 -124 20 -130 55
-500 50 -542 0 -7 3 -13 8 -13 5 0 8 -3 8 -7 -1 -5 0 -12 1 -18 1 -5 1 -29 0
-53 -1 -24 4 -49 10 -57 10 -12 17 -44 34 -150 2 -11 9 -33 15 -49 6 -15 11
-33 10 -40 -4 -32 2 -46 22 -46 16 0 20 -5 17 -22 -2 -13 -8 -22 -14 -21 -6 1
-11 -5 -11 -13 0 -8 8 -14 18 -14 16 0 31 -25 35 -55 0 -5 4 -18 9 -27 4 -10
8 -29 9 -43 0 -14 7 -25 15 -25 8 0 11 -3 8 -6 -3 -4 -1 -16 5 -28 7 -11 12
-28 13 -36 1 -8 2 -23 3 -32 1 -10 8 -18 15 -18 6 0 24 -7 40 -14 23 -13 27
-13 27 0 0 8 4 14 8 14 5 0 15 11 22 25 7 14 19 25 27 25 15 0 18 -36 3 -45
-5 -3 -10 -14 -9 -23 0 -14 2 -13 8 3 9 21 16 -15 27 -135 7 -77 13 -102 24
-95 6 3 10 2 10 -4 0 -12 69 -33 83 -24 6 3 8 2 4 -3 -3 -5 1 -18 9 -29 13
-18 14 -18 14 7 0 14 7 29 16 32 23 9 34 7 34 -4 0 -5 -6 -7 -14 -4 -8 3 -17
0 -22 -7 -4 -7 -2 -15 5 -17 17 -6 51 -43 51 -56 0 -6 -4 -4 -10 4 -10 17 -15
14 -24 -16 -7 -22 16 -40 35 -28 5 3 9 0 9 -5 0 -6 9 -11 20 -11 17 0 19 3 10
19 -16 31 -12 51 10 51 11 0 20 -5 20 -11 0 -8 4 -8 15 1 8 6 14 15 13 18 -1
4 2 15 7 25 10 24 -19 45 -53 39 -17 -3 -23 -1 -18 7 4 7 0 11 -11 11 -40 0
-43 16 -43 242 0 205 1 219 20 238 11 11 29 20 40 20 10 0 24 8 29 18 9 15 12
15 21 2 8 -13 11 -11 16 8 4 12 10 22 15 22 5 0 9 9 9 19 0 11 3 21 8 23 9 4
52 86 52 100 0 15 27 38 44 38 9 0 16 4 16 9 0 4 11 19 24 32 24 25 56 130 56
187 0 37 -19 84 -31 76 -5 -3 -5 6 0 19 5 13 14 50 20 81 6 34 24 77 42 103
45 68 69 139 68 208 -1 220 0 250 15 289 22 59 43 152 50 221 5 44 13 66 31
85 20 21 24 36 25 95 1 39 6 99 12 135 5 36 13 110 18 165 5 55 16 170 24 255
9 85 18 184 20 220 5 88 10 111 30 151 9 19 19 61 22 94 6 67 14 107 45 210
11 39 24 102 29 140 4 39 13 95 19 125 7 30 14 73 16 95 2 22 7 67 11 100 4
33 7 68 8 77 0 9 4 14 8 12 4 -3 8 22 8 55 0 55 3 64 31 91 18 16 36 30 42 30
11 0 2 41 -23 95 -18 39 -18 41 2 75 12 19 29 44 38 55 10 11 25 43 33 70 15
46 14 84 -3 140 -6 18 12 125 20 125 5 0 7 13 5 30 -2 17 0 30 4 30 5 0 8 15
7 33 -1 17 4 53 11 79 6 26 10 60 9 75 -2 15 0 33 4 38 4 6 10 38 12 73 2 35
9 67 15 70 5 4 24 27 41 51 18 24 32 40 33 35 1 -5 2 -74 3 -154 1 -90 7 -153
14 -167 7 -12 14 -68 16 -124 5 -99 6 -103 35 -128 41 -36 101 -128 105 -162
2 -17 -4 -36 -15 -48 -10 -10 -15 -22 -12 -25 4 -3 1 -6 -5 -6 -7 0 -12 -8
-12 -18 0 -10 -5 -23 -11 -29 -14 -14 -7 -127 11 -168 21 -48 21 -58 -1 -52
-10 3 -17 2 -14 -3 3 -4 -2 -13 -10 -20 -10 -8 -15 -30 -15 -60 0 -54 20 -150
30 -150 6 0 24 70 47 183 3 15 8 27 12 27 9 0 25 46 50 145 12 50 28 95 35
100 18 14 41 58 38 72 -5 22 28 74 53 83 14 5 25 14 25 20 0 6 5 8 12 4 6 -4
8 -3 4 4 -3 6 0 16 7 24 50 49 80 136 92 260 2 14 6 31 10 37 3 6 10 32 15 59
5 26 15 77 23 114 8 37 12 70 9 73 -3 3 11 11 30 19 19 8 39 21 45 28 5 7 15
55 22 105 11 92 27 143 42 143 21 0 60 103 62 163 l2 62 67 3 c38 2 68 6 68
10 0 10 90 7 114 -3 13 -6 17 -5 13 2 -4 7 4 11 21 12 57 1 63 3 69 18 6 15
90 58 107 54 5 -1 17 6 28 16 20 18 134 46 149 37 5 -3 9 0 9 6 0 6 4 9 9 5 5
-3 15 1 23 8 7 8 21 13 30 11 10 -1 15 3 11 11 -2 8 5 20 16 27 12 7 21 17 21
23 0 5 10 19 23 30 12 11 30 33 40 48 10 15 22 25 27 22 6 -4 10 0 10 8 0 8
19 22 43 31 69 29 71 31 97 79 16 29 32 47 43 47 10 0 15 5 12 10 -3 6 4 11
17 11 26 2 32 2 138 18 41 7 78 15 83 20 5 5 2 20 -8 34 -16 25 -16 26 16 42
30 16 43 16 113 1 19 -5 37 -1 55 11 49 33 75 44 93 40 10 -3 18 -1 18 3 0 4
8 6 19 3 19 -5 112 39 132 63 6 8 17 14 23 14 18 1 63 43 79 75 10 20 12 37 6
53 -6 16 -5 22 6 22 8 0 15 5 15 10 0 6 28 10 65 10 l65 0 0 49 c0 80 4 81
270 81 167 0 230 3 239 13 11 10 13 9 8 -4 -4 -13 3 -15 43 -13 55 2 73 10 64
27 -4 7 -3 9 1 4 10 -9 55 31 55 49 0 8 6 11 17 7 11 -4 14 -3 9 5 -4 7 -1 12
8 12 9 0 16 4 16 9 0 6 27 26 60 47 35 21 57 41 53 48 -3 6 -2 8 2 3 5 -4 18
-1 30 7 12 8 47 20 78 27 42 10 59 19 63 34 4 11 10 22 15 25 7 5 19 64 23
115 2 34 23 48 93 62 16 3 35 6 43 7 8 0 22 8 31 16 61 56 115 95 132 96 10 1
28 6 40 12 41 20 86 30 105 26 21 -6 51 30 46 58 -1 10 6 20 17 23 10 4 18 9
18 13 -1 4 2 17 6 30 7 22 9 22 189 22 120 0 176 -4 166 -10 -8 -5 -11 -10 -6
-10 5 0 18 8 28 17 18 16 18 16 12 -2 -6 -15 -4 -17 14 -13 12 4 25 2 28 -3 3
-5 1 -9 -3 -9 -5 0 -9 -8 -9 -18 0 -10 8 -18 17 -18 10 0 17 3 17 6 -1 18 3
23 11 11 7 -11 12 -10 29 5 17 15 19 21 9 33 -11 14 -10 14 7 1 10 -8 25 -15
34 -17 9 -1 18 -7 20 -13 2 -5 8 -8 12 -5 5 3 15 -4 23 -15 7 -11 17 -17 20
-13 4 3 7 1 7 -7 0 -9 3 -10 14 -1 11 9 18 8 30 -4 9 -9 16 -13 16 -8 0 4 5 1
10 -7 7 -11 10 -11 10 -2 0 8 5 10 13 5 6 -4 19 -8 27 -8 8 0 20 -3 25 -6 10
-5 97 -12 173 -13 23 -1 42 -4 42 -8 0 -5 5 -8 11 -8 5 0 8 4 5 9 -8 12 462 7
474 -5 5 -5 12 -61 15 -124 3 -63 9 -128 15 -145 22 -73 29 -174 14 -242 -7
-36 -13 -110 -13 -162 0 -53 -3 -141 -7 -196 -11 -138 -11 -284 0 -525 5 -113
9 -414 8 -670 -1 -592 16 -1148 37 -1174 10 -12 21 -129 25 -258 1 -48 8 -93
14 -101 19 -23 3 -117 -25 -143 l-25 -23 3 -206 c2 -165 5 -204 15 -191 10 15
12 14 18 -9 4 -14 10 -24 15 -21 7 5 6 -124 -2 -189 -6 -41 -28 -118 -39 -129
-4 -6 -8 -22 -8 -36 0 -15 -3 -30 -7 -34 -12 -11 -22 -157 -11 -149 5 2 15
-12 24 -32 16 -38 19 -185 8 -345 -3 -41 -5 -88 -5 -103 0 -15 -7 -31 -15 -34
-8 -3 -14 -11 -14 -18 0 -8 -9 -17 -20 -20 -11 -3 -20 -11 -20 -17 0 -6 -9 -8
-21 -5 -20 5 -20 5 -4 -13 11 -13 13 -19 4 -22 -19 -6 -27 -143 -10 -176 4 -9
7 -22 4 -28 -7 -21 21 -34 47 -21 20 10 24 20 25 60 0 26 -3 47 -7 47 -3 0 -3
13 2 29 4 16 5 32 2 36 -4 4 0 5 8 3 8 -2 14 2 13 7 -1 6 16 10 37 10 21 0 37
-1 35 -4 -6 -6 28 -61 37 -61 4 0 8 -5 8 -11 0 -5 -3 -8 -7 -6 -5 3 -9 -5 -9
-16 -1 -12 -6 -43 -11 -70 -6 -26 -7 -50 -3 -52 5 -3 6 -13 4 -23 -2 -9 3 -26
11 -37 26 -33 34 -2 31 119 -1 93 1 115 16 135 10 13 18 30 18 37 0 8 4 14 8
14 9 0 28 88 38 180 7 60 51 179 91 248 21 36 26 58 29 137 2 74 8 107 28 152
14 32 30 92 36 133 10 70 20 105 40 155 5 11 12 38 15 60 4 22 10 45 15 50 4
6 10 42 14 80 4 39 13 95 21 125 23 92 45 203 45 232 0 15 9 42 20 60 17 28
20 51 20 139 0 151 18 358 34 388 15 28 42 278 51 476 4 66 15 179 25 250 10
72 21 156 24 189 3 32 10 75 15 95 5 20 12 90 15 156 4 66 14 176 22 245 10
82 15 213 14 380 0 140 5 316 10 390 6 74 13 176 16 225 5 70 11 98 29 125 15
22 25 58 30 100 16 163 26 220 35 220 5 0 8 12 6 28 -2 15 3 56 10 92 8 36 18
109 23 163 7 81 12 102 31 122 22 23 26 24 139 20 64 -2 130 -8 146 -13 17 -5
47 -7 67 -6 23 2 43 -2 51 -11 8 -8 17 -12 20 -8 3 3 20 -1 37 -8 28 -13 30
-18 28 -56 -2 -26 -7 -38 -13 -32 -13 13 -25 11 -22 -3 1 -7 -4 -12 -11 -13
-7 0 -16 -5 -20 -11 -4 -6 -15 -14 -25 -17 -35 -13 -11 -32 44 -35 30 -1 61
-5 69 -9 8 -3 18 -7 22 -7 3 -1 10 -4 14 -8 4 -5 23 -8 41 -8 37 0 84 -21 114
-51 10 -10 23 -19 28 -19 5 0 19 -19 30 -43 25 -52 38 -137 20 -137 -6 0 -8
-7 -5 -16 3 -9 2 -12 -5 -9 -6 4 -7 -3 -3 -21 6 -23 4 -26 -9 -21 -9 3 -19 2
-22 -4 -4 -5 -11 -7 -16 -4 -5 4 -9 -1 -9 -9 0 -19 13 -27 29 -17 16 10 51 2
51 -11 0 -11 25 -38 37 -38 4 0 28 -21 53 -47 41 -42 102 -71 158 -75 6 -1 12
-5 12 -9 0 -8 28 -11 220 -28 89 -8 128 -16 136 -26 7 -9 27 -15 51 -15 37 0
98 -29 63 -30 -13 -1 -13 -3 1 -13 17 -13 22 -97 7 -97 -5 0 -8 -8 -9 -17 0
-10 -3 -13 -5 -7 -4 10 -24 10 -81 -2 -14 -3 -23 -12 -23 -23 0 -10 -7 -24
-15 -31 -19 -16 -19 -36 0 -44 8 -3 15 -12 15 -21 0 -11 11 -15 40 -15 22 0
40 4 40 9 0 5 11 8 24 7 13 0 22 -3 20 -5 -6 -6 27 -41 39 -41 5 0 21 -13 35
-28 21 -21 43 -31 93 -40 37 -7 80 -12 98 -12 17 0 31 -4 31 -9 0 -5 17 -9 37
-9 21 0 39 -5 41 -11 2 -7 62 -11 185 -11 212 0 341 12 363 35 8 8 20 15 25
15 5 0 9 11 9 25 0 14 5 25 10 25 6 0 10 9 10 20 0 11 5 20 10 20 6 0 10 40
10 100 0 62 -4 100 -10 100 -7 0 -7 8 1 22 7 12 11 49 11 83 -1 42 2 54 8 40
8 -19 9 -19 9 2 1 33 34 83 54 83 10 0 31 -7 46 -15 32 -16 132 -18 171 -3 32
13 130 11 197 -2 49 -11 52 -13 58 -50 4 -21 13 -46 20 -57 13 -17 14 -16 24
10 6 16 11 36 11 45 0 10 9 23 20 30 17 10 24 10 43 -3 13 -8 27 -12 30 -8 6
5 11 -36 10 -75 -1 -7 1 -11 4 -9 8 9 47 -36 69 -80 11 -23 17 -40 12 -37 -4
3 -8 3 -8 0 0 -3 26 -25 58 -50 45 -34 63 -56 77 -93 26 -67 25 -98 -3 -97
-12 1 -19 -2 -17 -7 5 -8 36 -4 92 10 29 8 32 6 43 -20 7 -16 24 -35 39 -42
23 -11 27 -20 33 -77 7 -74 19 -109 43 -134 17 -16 13 -52 -4 -42 -5 3 -11 -4
-14 -16 -4 -12 -1 -25 5 -29 7 -4 2 -18 -13 -40 -13 -19 -25 -36 -26 -38 -7
-10 -14 10 -19 49 -8 66 -32 114 -66 135 -17 10 -49 38 -72 62 -22 23 -48 43
-58 43 -10 0 -26 4 -36 9 -9 5 -39 19 -65 32 -27 13 -59 30 -73 37 -26 14 -49
8 -38 -10 4 -7 2 -8 -5 -4 -17 11 -41 -19 -36 -45 6 -29 -56 -94 -74 -76 -8 8
-11 8 -11 -1 0 -7 -8 -12 -19 -12 -17 0 -18 -8 -16 -82 3 -84 27 -161 60 -194
19 -20 19 -26 -4 -53 -19 -22 -20 -45 -5 -118 5 -29 47 -73 68 -73 9 0 16 -5
16 -10 0 -6 23 -33 50 -62 28 -28 51 -57 51 -62 3 -26 5 -33 23 -66 24 -44 27
-87 7 -122 -12 -22 -13 -34 -2 -67 6 -23 16 -41 21 -41 6 0 10 -4 10 -9 0 -5
16 -37 35 -71 19 -34 32 -66 29 -71 -3 -5 -2 -9 3 -9 9 0 33 -71 33 -99 0 -11
5 -23 10 -26 6 -3 10 -22 10 -41 0 -20 6 -41 13 -48 6 -8 18 -23 26 -34 8 -12
18 -19 22 -16 4 2 10 -5 14 -16 3 -11 10 -20 15 -20 4 0 10 -24 13 -52 7 -76
18 -111 39 -129 10 -9 18 -24 18 -33 0 -9 4 -16 8 -16 13 0 10 -42 -8 -110
-17 -64 -14 -104 9 -106 6 -1 17 -2 24 -3 30 -3 54 -40 61 -93 6 -49 44 -177
66 -223 12 -25 51 -175 51 -195 0 -8 7 -50 16 -92 11 -52 21 -78 31 -78 9 0
11 -7 7 -20 -10 -32 4 -63 26 -57 11 3 19 0 19 -7 0 -7 15 -10 45 -8 31 3 45
0 45 -8 0 -9 10 -11 30 -6 23 4 30 2 30 -10 0 -8 8 -34 19 -57 10 -23 21 -50
24 -59 9 -25 27 -22 27 3 0 17 18 59 38 89 10 15 42 -47 42 -81 0 -21 5 -41
11 -45 6 -3 8 -17 5 -30 -4 -13 -3 -24 2 -24 4 0 9 -18 9 -40 1 -35 -2 -40
-17 -35 -14 4 -20 -2 -27 -32 l-10 -38 -11 27 c-6 14 -16 29 -21 33 -6 3 -11
15 -11 25 0 21 -24 27 -82 21 -37 -3 -38 -5 -38 -41 0 -41 17 -100 30 -100 4
0 10 -30 13 -67 5 -53 12 -72 33 -94 30 -31 44 -30 45 4 l0 22 9 -23 c5 -12
15 -22 23 -22 30 0 36 -88 27 -361 -9 -254 -6 -607 6 -693 3 -23 6 -58 5 -78
-1 -36 1 -38 29 -38 20 0 30 5 30 15 0 8 7 15 15 15 8 0 16 6 16 13 1 6 4 -1
8 -18 7 -34 0 -94 -25 -205 -17 -76 -20 -167 -9 -230 3 -19 8 -50 11 -67 6
-43 34 -45 34 -3 0 60 40 108 60 71 18 -34 23 -100 10 -116 -12 -15 -11 -41 7
-155 8 -50 6 -218 -2 -287 -4 -32 -6 -87 -4 -123 11 -208 -2 -427 -29 -470
-26 -42 -12 -318 16 -313 6 2 9 -4 6 -12 -4 -8 -10 -15 -15 -15 -5 0 -9 -7 -9
-17 0 -13 3 -12 19 5 10 12 22 22 26 22 4 0 30 24 58 53 27 28 46 46 42 38 -6
-10 -4 -12 4 -7 7 5 10 14 7 22 -3 8 0 14 6 14 6 0 8 3 5 7 -4 3 -3 11 2 17 5
6 15 47 22 91 13 84 30 115 61 115 21 0 38 37 42 93 2 21 8 43 15 50 6 6 11
18 11 27 0 8 11 42 24 75 14 32 22 63 19 67 -2 5 2 32 11 61 14 49 30 126 29
137 -3 16 57 86 86 101 19 10 39 26 44 35 17 30 37 118 38 164 1 25 6 53 11
64 6 10 11 36 12 58 2 25 12 52 27 71 15 19 31 59 39 97 7 36 21 85 31 110 24
60 59 201 59 239 0 16 5 42 12 56 10 21 17 26 39 23 16 -3 25 0 22 5 -3 5 0 8
8 5 10 -3 18 12 27 56 19 85 23 108 25 128 1 9 4 15 8 12 4 -2 12 10 19 26 7
16 16 28 20 25 4 -2 5 7 2 20 -2 14 3 40 12 59 9 19 16 45 16 59 0 27 17 78
28 87 13 10 32 50 32 67 0 29 43 147 57 156 7 4 13 15 13 24 0 13 3 13 15 3
13 -11 15 -7 15 31 l0 42 -27 -24 c-16 -13 -22 -17 -15 -9 6 8 12 22 12 32 0
15 3 16 25 6 14 -6 25 -15 25 -20 0 -4 4 -8 10 -8 5 0 7 6 4 14 -4 9 6 18 29
27 47 17 69 58 71 130 1 38 6 60 14 64 7 3 11 9 8 14 -3 5 -1 23 5 40 l11 31
219 0 c209 0 219 -1 219 -19 0 -22 42 -76 71 -92 12 -6 25 -6 37 0 36 19 42
-15 42 -248 l0 -219 26 -6 c15 -4 54 -9 88 -13 33 -3 71 -12 84 -19 20 -13 22
-22 21 -89 -1 -41 -5 -75 -10 -75 -4 0 -7 -26 -7 -58 0 -32 -4 -68 -11 -79 -6
-12 -11 -53 -11 -92 0 -58 -3 -72 -18 -80 -13 -7 -22 -7 -29 0 -8 8 -10 0 -9
-27 1 -22 -4 -61 -11 -88 -10 -38 -10 -52 -1 -57 9 -6 9 -14 -2 -36 -7 -15
-12 -40 -11 -54 1 -15 -5 -33 -13 -42 -8 -8 -16 -28 -16 -43 -1 -16 -2 -66 -3
-111 -1 -46 -5 -83 -8 -83 -3 0 -4 -13 -1 -29 2 -16 -1 -32 -7 -35 -6 -4 -11
-18 -11 -32 0 -14 -7 -32 -15 -40 -8 -9 -15 -21 -15 -27 0 -7 4 -6 10 3 8 11
9 7 4 -15 -4 -16 -11 -32 -15 -35 -5 -3 -11 -62 -15 -130 -6 -110 -9 -129 -30
-157 -22 -30 -24 -41 -23 -137 0 -58 -2 -110 -6 -117 -4 -6 -12 -84 -16 -173
-5 -88 -11 -174 -14 -191 -21 -129 -27 -202 -34 -430 -10 -291 -16 -349 -41
-385 -21 -29 -17 -100 5 -100 8 0 17 -10 21 -22 9 -31 9 -572 -1 -685 l-8 -93
-58 0 c-52 0 -58 2 -61 23 -2 18 -8 12 -30 -30 -14 -29 -22 -50 -17 -47 5 3 9
-2 9 -11 0 -9 -4 -14 -9 -11 -11 7 -21 -42 -21 -101 0 -27 4 -42 10 -38 6 3
10 -1 10 -9 0 -8 -4 -17 -9 -20 -11 -7 4 -94 24 -134 9 -18 14 -40 11 -49 -4
-9 -2 -32 4 -52 21 -68 21 -68 30 -46 8 19 9 19 9 -2 1 -12 4 -30 7 -40 5 -15
4 -15 -5 -3 -9 12 -11 10 -11 -11 0 -15 7 -32 15 -39 9 -7 15 -29 15 -51 0
-28 6 -42 20 -51 11 -7 20 -20 20 -29 0 -9 7 -22 15 -29 9 -7 13 -15 11 -17
-5 -5 9 -25 36 -50 9 -9 15 -20 13 -24 -3 -4 2 -12 10 -19 8 -7 15 -19 15 -26
0 -17 17 -18 23 -1 3 6 6 -3 6 -22 1 -23 -10 -51 -34 -87 -19 -29 -35 -64 -35
-77 0 -14 -4 -27 -9 -29 -6 -2 -12 -16 -15 -32 -3 -16 -6 -29 -8 -30 -46 -28
-61 -43 -83 -84 -16 -30 -55 -73 -100 -111 -51 -42 -80 -76 -95 -109 -12 -26
-35 -74 -51 -107 -16 -33 -31 -73 -35 -90 -7 -36 -22 -58 -49 -73 -15 -7 -24
-29 -33 -71 -10 -48 -23 -73 -60 -118 -26 -32 -64 -81 -84 -108 -20 -28 -46
-59 -58 -70 -12 -11 -33 -41 -46 -67 -13 -26 -33 -53 -45 -61 -15 -11 -25 -36
-35 -84 -8 -37 -23 -80 -34 -94 -10 -15 -26 -43 -34 -64 -15 -35 -61 -99 -97
-136 -9 -9 -24 -39 -33 -67 -9 -27 -26 -58 -37 -68 -10 -9 -22 -35 -25 -56 -4
-22 -15 -45 -26 -52 -23 -16 -47 -78 -48 -122 0 -24 -5 -33 -21 -37 -15 -4
-20 -11 -17 -25 3 -10 -1 -27 -8 -37 -8 -10 -14 -16 -14 -12 0 4 -8 3 -18 -2
-10 -5 -24 -29 -32 -53 -7 -24 -22 -51 -34 -61 -20 -18 -20 -20 -3 -32 16 -11
74 -11 86 1 3 2 5 19 5 38 1 19 4 32 9 29 4 -2 7 6 7 19 0 13 4 28 10 34 5 5
10 26 12 47 2 42 10 51 50 61 19 4 32 18 44 46 l18 40 24 -27 c19 -22 23 -36
19 -68 -7 -64 -13 -79 -46 -114 -17 -18 -31 -38 -31 -45 0 -6 -14 -27 -30 -46
-16 -19 -30 -38 -30 -43 0 -4 -14 -23 -32 -42 -26 -29 -32 -44 -33 -90 -2 -30
1 -58 6 -61 5 -3 9 -13 9 -24 0 -31 25 -30 93 5 62 31 67 32 82 16 21 -24 21
-101 -1 -101 -19 0 -64 -40 -64 -57 0 -12 -57 -37 -77 -34 -19 3 -16 -13 7
-39 18 -21 25 -52 21 -89 -2 -7 0 -20 4 -29 5 -14 7 -14 15 -2 8 13 10 13 10
-2 0 -27 44 -101 63 -106 9 -2 17 -9 17 -14 0 -5 5 -6 10 -3 6 4 8 10 5 14 -2
5 2 17 10 27 8 11 15 42 15 70 0 47 -2 53 -27 62 -16 6 -41 12 -58 14 -19 2
-31 9 -33 21 -5 25 44 68 84 74 25 4 34 11 34 24 0 17 9 19 115 19 113 0 115
0 115 23 0 41 18 47 127 47 95 0 103 1 103 19 0 11 4 22 8 25 5 3 8 25 8 50
-1 24 2 42 6 40 4 -3 10 23 14 56 7 67 25 93 58 88 18 -3 22 -12 26 -58 3 -30
14 -70 23 -87 20 -38 88 -73 140 -73 33 0 33 0 61 89 29 93 51 135 66 126 4
-3 10 0 12 5 2 6 27 13 57 15 29 2 55 6 58 8 2 3 7 22 10 43 3 22 11 42 17 46
6 4 11 15 11 25 0 13 9 19 33 21 18 2 36 10 39 18 3 8 17 14 32 14 14 0 41 9
59 20 18 11 48 20 68 20 19 0 46 7 59 16 14 9 44 16 67 16 43 -1 82 13 74 26
-2 4 3 8 12 8 45 2 195 28 257 44 39 10 108 21 155 24 91 7 198 38 230 68 11
10 23 17 27 17 17 -4 45 14 33 21 -6 4 3 7 20 7 16 0 33 2 36 5 8 8 -7 99 -15
94 -12 -8 -12 123 0 146 24 47 82 98 112 98 25 0 120 -61 162 -105 22 -22 30
-71 23 -135 -5 -43 -4 -66 3 -71 6 -3 9 -8 8 -10 -2 -2 3 -13 11 -24 13 -18
40 -30 116 -50 26 -7 84 14 152 54 63 37 110 40 159 10 38 -24 54 -17 72 31 6
17 16 44 22 60 9 23 18 30 39 30 15 0 33 -7 40 -15 7 -8 16 -12 21 -9 5 3 9 0
9 -6 0 -7 6 -10 13 -7 6 2 29 -7 49 -20 21 -12 41 -23 45 -23 5 0 30 -11 57
-25 27 -14 55 -25 62 -25 16 0 24 -23 14 -39 -5 -9 -10 -10 -14 -2 -4 6 -12
11 -17 11 -6 0 -7 -4 -4 -10 4 -6 -8 -11 -27 -11 -30 -1 -29 -2 12 -10 107
-21 194 -25 222 -9 24 13 37 12 155 -18 70 -18 149 -32 174 -32 54 0 58 -3 51
-35 -4 -21 -10 -25 -43 -25 -21 0 -54 -9 -73 -21 -20 -11 -41 -17 -48 -13 -7
4 -10 4 -6 -1 5 -5 -1 -14 -12 -22 -13 -9 -20 -26 -20 -48 0 -33 1 -34 58 -45
31 -7 70 -16 86 -21 16 -5 50 -9 76 -9 44 0 48 -2 55 -27 4 -19 9 -23 14 -14
6 8 10 2 14 -19 6 -29 9 -31 44 -28 35 4 38 7 38 36 0 29 3 32 29 32 30 0 96
35 96 51 0 5 49 9 109 9 78 0 111 4 114 13 4 9 8 8 16 -3 8 -12 15 -12 44 -2
18 7 36 12 40 12 4 0 19 -24 33 -52 15 -29 31 -56 37 -59 5 -4 7 -11 3 -17 -3
-6 9 -16 29 -23 19 -7 35 -17 35 -21 0 -5 12 -5 27 -2 14 4 40 7 57 8 30 1 31
3 34 49 2 26 7 47 13 47 5 0 9 -4 9 -10 0 -5 16 -10 35 -10 43 0 59 -23 40
-61 -8 -15 -11 -30 -7 -34 4 -4 -4 -2 -17 5 -19 10 -25 10 -32 -1 -14 -23 -11
-26 54 -49 34 -12 81 -28 105 -37 23 -8 48 -23 55 -33 8 -11 32 -22 58 -26 24
-4 49 -11 56 -16 7 -5 22 -7 34 -3 13 5 19 3 15 -3 -5 -8 6 -14 44 -26 3 -1
11 -5 18 -9 29 -19 158 -57 192 -57 27 0 45 7 63 26 15 15 24 30 22 34 -10 16
38 22 129 15 65 -5 96 -4 100 4 13 21 36 12 36 -14 0 -35 68 -104 82 -84 7 11
11 11 15 2 2 -7 11 -13 19 -13 11 0 14 -19 14 -89 0 -104 -4 -101 113 -101 45
0 111 -5 147 -10 36 -6 100 -11 142 -13 99 -3 110 -13 109 -96 0 -49 -6 -69
-28 -103 -16 -24 -31 -44 -35 -46 -5 -2 -8 -9 -8 -16 0 -7 -11 -21 -24 -32
-14 -10 -23 -21 -20 -26 3 -4 0 -8 -5 -8 -6 0 -11 -16 -11 -36 0 -19 3 -33 8
-30 4 2 6 -13 4 -33 -3 -31 1 -43 27 -69 l31 -30 0 -126 c0 -68 -4 -127 -9
-130 -5 -3 -11 -20 -14 -38 -3 -18 -10 -51 -16 -73 -5 -22 -13 -83 -17 -135
-3 -52 -19 -153 -34 -225 -15 -71 -33 -179 -39 -240 -7 -60 -21 -153 -31 -205
-35 -184 -40 -217 -40 -263 0 -29 -8 -59 -20 -79 -11 -18 -20 -39 -20 -47 0
-8 -9 -32 -19 -55 -11 -23 -35 -76 -54 -118 -20 -42 -53 -103 -75 -135 -21
-32 -44 -72 -50 -90 -6 -17 -29 -48 -51 -69 -23 -20 -41 -45 -41 -56 0 -11
-18 -54 -40 -95 -22 -42 -40 -85 -40 -95 0 -11 -26 -76 -58 -146 -35 -76 -62
-149 -66 -181 -4 -30 -15 -70 -25 -90 -10 -20 -21 -49 -25 -66 -4 -16 -24 -66
-44 -110 l-36 -80 2 -288 2 -288 -25 -37 c-14 -20 -25 -48 -25 -62 0 -53 -23
-104 -77 -168 -65 -78 -126 -141 -159 -162 -12 -8 -54 -36 -92 -62 -38 -27
-73 -48 -77 -48 -13 0 -80 -34 -90 -46 -22 -26 -154 -85 -220 -98 -38 -8 -97
-26 -130 -40 -33 -14 -70 -26 -81 -26 -12 0 -29 -11 -37 -24 -11 -16 -33 -28
-69 -36 -29 -7 -64 -21 -78 -30 -33 -23 -50 -27 -148 -39 -76 -10 -86 -14
-116 -45 -25 -28 -32 -42 -28 -65 3 -24 -1 -32 -24 -44 -44 -22 -112 -31 -129
-17 -10 8 -15 9 -15 2 0 -20 -55 -8 -65 15 -8 18 -15 21 -45 16 -19 -3 -43 -5
-52 -5 -10 1 -18 -3 -18 -9 0 -5 -6 -9 -14 -9 -8 0 -16 -6 -19 -14 -7 -19 -59
-26 -191 -29 -95 -1 -110 -4 -114 -19 -2 -10 -8 -16 -12 -13 -5 3 -15 -2 -23
-10 -9 -8 -18 -15 -22 -15 -11 0 -34 -27 -29 -33 3 -3 -3 -3 -14 0 -11 2 -30
0 -41 -7 -20 -10 -191 -40 -233 -40 -10 0 -30 11 -44 25 -14 14 -29 25 -35 25
-6 0 -8 4 -5 8 3 5 -30 9 -72 9 -42 1 -152 3 -245 6 -92 3 -165 2 -163 -2 3
-4 -14 -8 -37 -9 -30 -1 -38 1 -27 8 11 7 3 10 -30 10 -25 0 -101 11 -170 25
-69 13 -139 25 -156 25 -17 0 -50 6 -75 14 -24 8 -69 17 -99 19 -30 3 -75 12
-100 21 -25 10 -67 24 -94 32 -28 9 -66 27 -85 40 -20 13 -40 24 -44 24 -11 0
-80 32 -87 39 -3 4 -31 28 -63 54 -32 27 -64 62 -72 78 -9 16 -36 51 -60 79
-25 28 -54 69 -65 91 -12 22 -32 44 -45 49 -29 11 -79 77 -106 138 -18 42 -80
108 -234 247 -42 39 -83 84 -91 100 -14 30 -45 77 -84 127 -11 15 -27 43 -36
64 -8 20 -26 54 -40 75 -13 21 -24 44 -24 49 0 15 -59 101 -82 120 -10 8 -24
33 -31 55 -10 29 -24 46 -52 62 -30 16 -45 36 -67 84 -15 34 -48 82 -72 106
-25 25 -58 68 -75 97 -16 29 -48 79 -70 111 -23 32 -41 63 -41 68 0 5 -7 33
-15 62 -17 58 -44 95 -68 95 -8 0 -17 6 -20 14 -6 14 -35 29 -107 57 -43 16
-222 197 -252 254 -11 22 -36 58 -54 79 -19 22 -34 45 -34 51 0 7 -15 28 -33
47 -18 20 -42 57 -52 84 -23 62 -64 121 -89 128 -10 2 -15 9 -11 15 3 6 3 11
-2 11 -13 0 -93 144 -93 168 0 6 -5 12 -10 12 -6 0 -14 10 -19 23 -5 12 -15
37 -23 55 -7 17 -17 32 -21 32 -5 0 -6 4 -3 8 2 4 -11 25 -30 47 -19 22 -34
46 -34 53 0 7 -4 11 -9 7 -5 -3 -12 4 -16 14 -3 11 -15 23 -26 26 -14 5 -18
12 -14 23 3 9 3 13 -1 9 -4 -4 -13 -2 -21 4 -7 6 -13 8 -13 3 0 -5 -7 2 -16
14 -8 12 -18 20 -22 18 -4 -2 -8 14 -10 37 -1 23 -6 44 -10 47 -12 9 -32 49
-32 65 0 10 -5 13 -11 9 -7 -4 -10 -1 -7 7 3 8 -5 25 -17 39 -16 17 -26 44
-30 80 -11 89 -16 93 -94 87 -92 -7 -141 -30 -200 -92 -40 -42 -63 -57 -108
-70 -100 -29 -137 -45 -174 -75 -101 -80 -232 -140 -308 -140 -13 0 -32 -7
-41 -15 -23 -21 -136 -62 -235 -86 -44 -11 -100 -26 -125 -34 -58 -18 -145
-28 -246 -29 -53 -1 -87 -6 -97 -15 -23 -18 -21 -63 3 -94 23 -29 24 -39 8
-83 -8 -24 -9 -40 -1 -56 43 -96 53 -121 53 -137 0 -10 15 -49 33 -87 18 -38
39 -84 47 -102 8 -21 16 -29 20 -22 6 9 9 9 13 -1 4 -10 6 -10 6 -1 1 6 5 12
10 12 18 0 31 -97 29 -203 -2 -81 0 -110 10 -116 8 -4 13 -12 12 -17 -1 -5 1
-23 5 -41 3 -18 -2 -69 -11 -114 -9 -45 -14 -102 -11 -127 3 -25 1 -57 -5 -71
-5 -15 -14 -66 -19 -116 -4 -49 -11 -115 -15 -147 -7 -63 1 -117 17 -101 5 5
12 34 16 64 3 32 15 66 28 84 12 17 27 57 33 90 7 33 23 83 37 110 38 80 92
253 105 340 7 44 18 90 26 101 7 12 20 52 29 90 8 37 19 72 24 78 5 6 14 36
21 66 7 30 31 91 52 135 22 44 50 100 61 123 23 46 78 102 100 102 7 0 32 9
55 20 72 35 115 22 152 -45 l23 -43 -16 -98 c-37 -212 -46 -257 -56 -267 -6
-6 -11 -19 -11 -28 0 -9 -13 -46 -30 -81 -23 -50 -31 -83 -36 -153 -6 -93 -31
-200 -57 -251 -8 -16 -17 -58 -21 -94 -8 -77 -38 -213 -71 -325 -13 -44 -27
-111 -29 -150 -3 -38 -8 -101 -11 -140 -3 -38 -8 -91 -11 -116 -4 -31 1 -72
14 -125 38 -149 46 -219 32 -256 -27 -67 -63 -143 -70 -148 -4 -3 -17 -36 -30
-75 -12 -38 -29 -82 -36 -96 -7 -14 -15 -57 -18 -95 -16 -185 -18 -200 -45
-254 -16 -30 -34 -73 -41 -95 -15 -46 -98 -168 -164 -240 -25 -27 -53 -71 -61
-96 -17 -49 -42 -77 -90 -102 -17 -8 -39 -24 -49 -36 -16 -18 -17 -25 -8 -47
7 -13 12 -45 12 -69 0 -67 -37 -235 -57 -257 -21 -23 -173 -97 -217 -105 -17
-3 -39 -10 -50 -15 -12 -7 -16 -7 -12 0 4 6 -2 8 -13 5 -34 -9 -149 -143 -165
-192 -5 -14 -19 -39 -31 -56 -80 -108 -161 -265 -168 -325 -4 -25 -13 -60 -22
-77 -21 -42 -52 -146 -75 -249 -10 -44 -20 -89 -23 -100 -4 -10 -9 -39 -12
-63 -3 -23 -8 -47 -11 -53 -7 -11 15 -68 27 -68 5 0 9 -6 9 -13 0 -19 36 -50
49 -43 5 3 11 0 14 -6 5 -15 46 29 47 50 0 6 6 12 14 12 27 0 85 71 108 131
15 40 33 68 53 82 17 12 31 24 33 27 1 4 16 4 33 2 43 -6 61 -40 65 -120 2
-56 7 -70 27 -88 13 -11 23 -27 22 -35 -1 -8 -5 -38 -9 -67 -4 -29 -11 -63
-15 -75 -5 -12 -17 -51 -27 -87 -10 -36 -33 -93 -51 -127 -18 -33 -33 -72 -33
-85 0 -12 -14 -59 -30 -103 -18 -47 -30 -99 -30 -127 l0 -48 3355 0 c2355 0
3355 3 3355 11 0 5 -4 8 -9 5 -5 -3 -11 4 -14 15 -3 12 -10 18 -16 14 -6 -3
-11 1 -11 9 0 8 -8 16 -17 18 -10 2 -18 12 -19 23 -2 57 -5 66 -15 60 -6 -4
-17 1 -24 11 -8 11 -15 16 -15 12 0 -9 -40 29 -40 38 0 3 7 4 15 0 8 -3 15 -1
15 5 0 6 4 8 8 5 5 -3 9 1 10 9 1 8 3 21 4 29 1 8 8 12 16 9 9 -4 10 -8 3 -12
-6 -4 5 -7 25 -7 30 0 33 2 20 12 -14 9 -9 13 31 24 27 7 57 15 68 18 11 3 23
5 28 4 4 -1 7 9 7 23 0 17 11 32 37 50 21 14 43 25 49 25 6 0 18 7 25 16 12
14 14 14 20 -3 5 -15 9 -12 24 19 10 20 22 35 27 32 4 -3 5 2 2 10 -3 9 5 27
20 43 14 15 26 33 26 40 0 15 49 114 67 135 8 9 13 21 10 25 -3 5 4 10 16 10
41 4 63 24 77 71 8 26 16 53 18 59 2 7 -4 13 -13 13 -12 0 -15 5 -10 17 12 29
23 75 30 117 3 22 13 45 23 52 16 12 15 13 -6 14 -23 0 -23 1 10 34 22 23 34
29 36 20 2 -10 10 -7 25 10 31 33 127 58 232 61 94 2 139 11 130 25 -8 13 123
33 176 27 30 -4 57 -14 71 -28 29 -27 105 -62 118 -54 5 3 7 -1 4 -9 -5 -14
-19 -17 -127 -32 -53 -7 -107 10 -107 33 0 12 -7 14 -31 9 -17 -3 -40 -6 -51
-6 -10 0 -16 -5 -13 -10 3 -6 1 -10 -5 -10 -19 0 -40 -27 -34 -43 7 -19 57
-29 198 -41 32 -3 66 -12 75 -20 19 -17 171 -39 215 -30 16 3 32 0 36 -6 4 -6
12 0 20 15 7 14 22 25 32 25 10 0 18 4 18 10 0 10 27 3 48 -14 11 -8 10 -12
-5 -23 -10 -8 -17 -17 -15 -21 2 -4 -5 -9 -15 -11 -10 -2 -22 -10 -26 -17 -5
-8 -12 -12 -16 -9 -5 2 -12 -15 -15 -40 -4 -24 -11 -47 -16 -50 -5 -3 -6 -13
-3 -22 5 -12 3 -14 -7 -8 -10 6 -12 2 -8 -18 3 -17 1 -24 -8 -20 -16 6 -29
-16 -17 -28 13 -13 55 -20 48 -8 -4 5 -1 9 4 9 6 0 11 -5 11 -11 0 -5 5 -7 10
-4 6 4 33 8 60 11 39 3 50 1 50 -11 0 -10 11 -15 38 -16 145 -3 162 -11 162
-70 0 -29 5 -39 19 -44 11 -3 23 -15 26 -26 4 -10 15 -19 25 -19 21 0 30 -19
30 -63 1 -36 20 -67 41 -67 24 0 59 -30 59 -51 0 -19 17 -24 66 -20 12 1 24
-5 27 -13 3 -8 26 -18 54 -22 59 -9 73 -22 73 -73 0 -29 5 -41 18 -44 16 -4
16 -5 0 -6 -22 -1 -24 -21 -3 -21 10 0 15 -11 15 -35 0 -32 2 -35 30 -35 l30
0 2 -72 2 -73 5 75 6 75 13 -41 c6 -23 12 -55 12 -73 0 -21 5 -31 15 -31 12 0
15 19 15 108 0 96 -2 111 -20 127 -11 10 -20 29 -20 42 0 16 -6 23 -20 23 -16
0 -20 7 -20 30 0 17 -4 30 -10 30 -5 0 -10 5 -10 10 0 6 11 10 25 10 14 0 25
-5 25 -11 0 -14 25 -39 39 -39 6 0 11 -11 11 -25 0 -21 5 -25 31 -25 l31 0 -4
-70 c-4 -67 -3 -70 19 -70 22 0 23 -4 23 -70 l0 -70 70 0 c40 0 70 4 70 10 0
6 -4 10 -10 10 -5 0 -10 20 -10 45 0 33 6 51 22 67 12 12 22 33 23 47 1 21 6
26 28 26 15 -1 27 3 27 7 0 4 9 8 20 8 11 0 20 -4 20 -10 0 -5 14 -10 30 -10
23 0 30 -5 30 -19 0 -11 -6 -21 -12 -24 -9 -3 -6 -11 10 -24 12 -11 22 -30 22
-41 0 -11 3 -22 8 -25 4 -2 2 -2 -5 -1 -7 2 -15 -1 -18 -6 -4 -6 -1 -10 4 -10
22 0 10 -30 -11 -31 -15 -1 -10 -4 15 -11 40 -11 62 -3 37 12 -8 5 -11 12 -7
17 5 4 11 3 15 -3 20 -31 55 -34 401 -34 342 0 351 1 351 20 0 10 -5 31 -12
44 -9 21 -8 32 5 58 9 18 19 50 22 71 5 30 10 37 28 37 34 0 66 -27 72 -63 12
-62 79 -111 102 -74 4 8 16 17 27 20 12 5 16 13 12 25 -5 15 -5 15 7 1 10 -14
14 -14 25 -3 6 7 12 16 12 20 0 4 14 20 31 36 35 34 59 31 59 -7 0 -32 22
-105 32 -105 5 0 8 -7 8 -16 0 -8 7 -22 15 -31 8 -8 13 -19 10 -24 -4 -5 188
-9 483 -9 485 0 490 0 485 20 -4 16 0 20 21 20 14 0 26 4 26 8 0 5 12 7 28 4
46 -6 71 24 67 85 -1 28 -5 56 -9 62 -4 6 -8 27 -10 47 -2 30 1 37 21 45 14 5
128 9 254 9 214 0 229 -1 229 -18 0 -35 21 -42 126 -42 59 0 106 -4 109 -10 4
-6 11 -7 17 -4 6 4 5 10 -3 16 -9 6 31 7 107 3 66 -3 124 -2 128 2 8 8 13 9
40 12 10 1 17 21 21 66 l7 65 229 0 229 0 0 -29 c0 -16 3 -44 8 -62 6 -30 8
-27 12 31 l6 65 4 -77 c3 -49 2 -74 -4 -68 -16 16 -24 11 -19 -10 3 -11 10
-20 15 -20 5 0 8 -6 7 -12 -1 -7 -1 -25 0 -40 l1 -28 79 0 78 0 -5 49 -4 48
94 -5 c61 -3 98 -1 102 6 4 7 17 7 39 1 48 -14 85 -11 118 8 22 13 29 25 29
49 0 38 7 41 69 34 41 -4 46 -8 49 -32 3 -27 2 -28 -42 -28 -25 0 -46 -4 -46
-10 0 -11 118 -14 144 -4 10 4 16 18 16 36 0 17 -4 27 -10 23 -6 -3 -10 3 -10
15 0 11 -11 32 -25 45 -20 21 -34 25 -85 25 l-60 0 0 39 c0 22 -5 42 -12 44
-9 4 -8 6 2 6 12 1 14 12 12 49 l-4 49 33 1 c19 0 35 6 37 11 5 14 232 15 232
1 0 -6 32 -10 76 -10 93 0 113 16 116 89 l1 46 7 -45 7 -45 1 44 c2 40 4 43
25 37 12 -3 25 -6 30 -6 4 0 7 -6 7 -14 0 -8 6 -16 13 -19 8 -3 5 -11 -10 -24
-40 -35 -25 -63 33 -63 21 0 24 -5 24 -36 0 -34 21 -70 34 -57 3 4 6 26 6 50
l0 43 150 0 c142 0 150 -1 150 -19 0 -11 5 -23 10 -26 6 -4 10 5 8 24 -1 17
-6 31 -10 31 -5 0 -3 10 4 23 6 12 11 34 9 50 -3 30 14 37 23 10 3 -10 4 -5 2
10 -3 23 2 32 28 48 32 20 59 17 88 -8 9 -8 22 -12 27 -8 7 4 11 -11 11 -44 0
-27 5 -53 10 -56 6 -3 10 -33 10 -66 0 -34 -4 -58 -9 -55 -14 9 -25 -54 -12
-67 6 -6 11 -39 11 -72 0 -36 8 -87 20 -120 13 -37 20 -85 20 -129 0 -88 7
-116 30 -116 16 0 17 41 23 587 9 755 10 3473 1 3507 -3 14 -16 32 -29 40 -15
10 -32 41 -48 88 -15 46 -36 85 -55 104 -27 27 -31 39 -38 120 -13 143 2 223
50 262 11 9 27 29 35 44 16 32 35 35 59 11 16 -16 18 -14 25 33 13 75 24 4571
23 9364 l-1 4285 -38 80 c-21 44 -45 87 -52 95 -9 10 -17 53 -21 120 -8 123 5
169 55 194 22 12 32 25 35 49 24 147 26 556 26 4529 0 4080 -1 4318 -27 4318
-2 0 -15 -12 -27 -27 -40 -48 -100 -73 -172 -73 -54 0 -76 6 -134 35 -73 37
-74 37 -95 142 -22 107 87 225 226 244 60 9 75 7 113 -10 24 -10 52 -31 62
-46 49 -75 54 15 54 950 0 942 1 926 -64 957 -24 12 -41 32 -60 70 -29 61 -72
136 -91 158 -33 40 -69 136 -92 245 -29 141 -27 274 6 389 23 78 55 118 116
147 22 10 51 29 65 42 14 13 39 30 57 37 29 13 33 20 38 65 15 132 25 527 25
983 l0 502 -7661 0 -7661 0 8 -22 c13 -39 16 -209 4 -257 -10 -39 -65 -140
-104 -189 -68 -87 -111 -122 -192 -157 -71 -30 -98 -37 -157 -37 -117 -1 -152
24 -280 208 -73 104 -92 176 -84 316 4 54 11 107 17 118 11 20 10 20 -1115 20
l-1126 0 18 -32 c10 -20 18 -65 21 -115 l4 -83 -46 -68 c-78 -116 -136 -154
-235 -153 -102 0 -152 38 -212 158 -42 83 -44 93 -44 173 0 47 4 93 9 103 8
16 -322 17 -6853 17 l-6861 0 0 -1654z m13396 1085 c106 -50 137 -118 138
-296 0 -143 -18 -198 -93 -285 -26 -30 -55 -69 -64 -87 -12 -22 -35 -40 -80
-61 -136 -64 -207 -70 -295 -24 -23 12 -60 32 -83 43 -32 17 -47 36 -74 89
-37 74 -46 119 -33 167 5 18 12 76 17 130 9 108 37 195 73 228 92 82 207 123
353 124 68 1 89 -3 141 -28z m12025 -468 c6 -6 18 -9 25 -6 8 3 14 1 14 -5 0
-8 53 -23 93 -26 4 -1 22 -13 40 -28 40 -31 60 -93 77 -231 6 -48 15 -111 20
-139 6 -28 10 -104 10 -170 0 -116 -1 -122 -35 -193 -20 -41 -41 -100 -47
-132 -26 -134 -38 -162 -96 -225 -32 -33 -61 -67 -65 -75 -13 -22 -192 -103
-255 -115 -70 -13 -261 -2 -328 18 -78 23 -147 74 -163 120 -19 57 -38 101
-71 169 -39 80 -64 294 -55 470 7 130 51 306 83 335 10 8 26 32 37 53 21 40
108 136 125 138 6 1 13 2 18 3 4 1 25 6 47 10 22 4 63 15 92 25 43 15 85 17
237 17 127 -1 189 -5 197 -13z m-17211 -494 c61 -63 75 -93 85 -172 6 -44 4
-66 -8 -90 -9 -18 -25 -53 -36 -79 -14 -33 -32 -55 -63 -75 -39 -25 -52 -28
-129 -28 -78 0 -90 3 -135 30 -72 45 -124 137 -124 221 0 111 43 193 129 247
51 31 97 36 167 17 52 -14 70 -26 114 -71z m13960 -180 c36 -6 74 -14 85 -19
181 -76 264 -120 281 -150 10 -16 21 -30 25 -30 14 0 61 -124 70 -184 14 -88
6 -172 -29 -301 -48 -175 -86 -270 -130 -323 -125 -147 -234 -211 -365 -214
-62 -1 -79 2 -122 27 -27 16 -65 41 -83 57 -18 15 -45 34 -60 42 -16 8 -33 25
-39 39 -6 13 -40 57 -76 98 -72 82 -115 165 -153 292 -39 135 -27 261 31 329
11 13 32 41 46 63 32 49 172 195 187 195 5 0 36 20 69 44 75 56 102 60 263 35z
m-21630 -613 c30 -6 139 -55 150 -67 3 -3 38 -11 78 -18 81 -13 118 -33 194
-107 55 -53 108 -154 115 -216 3 -24 7 -45 9 -47 2 -2 -4 -17 -12 -34 -9 -17
-24 -60 -35 -96 -24 -88 -112 -283 -157 -349 -31 -46 -42 -54 -91 -68 -31 -9
-81 -25 -111 -35 -30 -10 -74 -21 -97 -25 -48 -7 -156 4 -148 15 2 5 -30 16
-73 26 -119 28 -122 30 -175 149 -56 123 -66 194 -63 416 2 108 6 148 24 201
25 75 69 136 127 174 22 15 54 40 70 55 36 34 104 43 195 26z m29254 -1476
c51 -45 66 -87 67 -179 1 -74 -2 -86 -37 -151 -40 -78 -79 -108 -166 -131
-102 -28 -211 28 -262 134 -23 49 -31 92 -27 163 3 80 115 166 265 203 80 20
96 16 160 -39z m-22125 -1761 c66 -17 97 -30 107 -44 9 -14 16 -99 24 -275 6
-140 15 -293 20 -340 12 -107 29 -520 22 -538 -4 -10 -24 -12 -91 -7 -112 8
-116 10 -164 58 l-42 42 -5 185 c-4 148 -9 192 -23 219 -9 19 -17 44 -17 55 0
21 -36 81 -87 146 -37 49 -151 130 -220 158 -31 13 -92 27 -137 33 -94 10
-347 12 -488 2 -147 -9 -126 -35 47 -58 28 -4 52 -9 55 -12 2 -2 11 -25 19
-51 11 -38 15 -164 20 -642 l6 -595 28 -3 c51 -6 172 45 216 91 41 43 55 65
83 125 31 66 31 69 32 242 1 173 1 175 25 186 18 10 32 9 60 -1 20 -7 66 -16
101 -20 112 -13 100 65 100 -674 0 -507 -3 -651 -12 -659 -16 -13 -178 -26
-207 -17 -11 3 -21 13 -21 20 0 8 -9 19 -19 24 -17 10 -19 26 -23 163 -3 140
-6 157 -28 198 -34 62 -115 141 -175 170 -45 23 -64 25 -200 28 -82 1 -156 -2
-164 -7 -22 -14 -4 -29 42 -35 88 -11 123 -15 140 -16 16 0 17 -33 17 -540 0
-561 2 -591 41 -616 8 -5 93 -11 190 -14 156 -4 179 -7 198 -24 26 -23 27 -52
3 -65 -20 -11 -182 -37 -197 -31 -5 1 -102 6 -215 9 -181 6 -208 9 -235 26
-25 17 -50 20 -177 23 -141 4 -150 3 -204 -22 -50 -23 -69 -26 -168 -26 -104
0 -112 2 -133 24 -22 23 -22 25 -5 45 15 19 33 23 137 31 140 12 153 15 183
47 l22 24 0 1313 c0 1039 -3 1315 -12 1323 -29 21 -129 42 -208 44 -47 1 -95
5 -107 10 -28 10 -30 44 -4 59 13 7 291 10 831 10 562 0 818 3 831 11 18 9 20
20 19 87 -4 151 -13 146 169 101z m8585 -141 l26 -23 10 -295 c6 -162 15 -315
20 -340 11 -53 18 -296 8 -305 -12 -12 -77 16 -83 35 -3 11 -17 28 -30 38 -23
18 -25 27 -30 153 -6 154 -11 183 -31 200 -8 6 -14 22 -14 34 0 12 -8 33 -19
46 -10 13 -22 35 -26 48 -9 29 -129 151 -148 151 -8 0 -26 11 -41 25 -15 14
-36 25 -47 25 -11 0 -38 9 -60 21 -35 17 -60 20 -171 21 -73 0 -133 -4 -137
-10 -6 -9 -55 -27 -103 -37 -19 -4 -28 -12 -28 -25 0 -15 -7 -20 -27 -20 -34
0 -58 -14 -49 -28 3 -6 -1 -15 -11 -21 -17 -9 -17 -10 0 -28 21 -24 22 -43 2
-43 -8 0 -15 5 -15 10 0 6 -7 10 -15 10 -18 0 -18 -2 -4 -34 10 -21 8 -36 -12
-88 -20 -52 -24 -81 -23 -173 0 -96 3 -118 26 -172 35 -82 103 -168 192 -241
74 -61 358 -252 374 -252 5 0 15 -7 22 -15 7 -8 38 -29 69 -47 120 -69 337
-260 412 -363 39 -55 129 -233 129 -256 0 -11 9 -48 21 -82 31 -92 31 -265 0
-367 -31 -102 -72 -180 -93 -180 -12 0 -18 -8 -18 -25 0 -20 -5 -25 -24 -25
-19 0 -23 -4 -19 -20 5 -17 0 -20 -26 -20 -28 0 -32 -3 -29 -22 2 -17 -2 -23
-17 -24 -40 -2 -43 -4 -38 -24 5 -17 0 -20 -28 -20 -39 0 -64 -13 -55 -28 3
-5 -13 -12 -37 -15 -23 -3 -49 -14 -57 -24 -8 -10 -32 -20 -54 -21 -21 -2 -56
-13 -77 -24 -78 -40 -513 -44 -573 -4 -13 8 -42 20 -66 26 -43 11 -214 103
-225 120 -7 11 -101 24 -115 15 -7 -4 -7 -12 0 -26 6 -11 15 -17 21 -14 5 4 9
-41 9 -116 0 -100 -3 -126 -17 -141 -20 -22 -33 -23 -33 -3 0 8 -5 15 -11 15
-6 0 -26 16 -46 36 l-34 36 5 81 c7 112 7 116 2 252 -3 66 -7 221 -11 345 -5
204 -8 228 -26 253 -12 16 -19 39 -17 55 6 52 122 72 165 29 8 -8 16 -65 23
-161 10 -154 27 -229 77 -341 41 -94 115 -191 182 -240 23 -16 54 -40 69 -52
15 -13 32 -23 37 -23 6 0 27 -9 46 -19 41 -22 179 -45 254 -42 95 3 176 22
235 53 73 38 176 138 200 193 9 22 25 46 34 54 11 9 16 30 17 65 0 44 26 142
28 109 1 -7 6 -13 11 -13 16 0 13 182 -4 205 -7 11 -17 36 -21 55 -4 19 -16
43 -26 53 -11 10 -19 27 -19 38 0 11 -11 31 -25 45 -14 14 -25 28 -25 31 0 4
-42 48 -93 98 -77 75 -168 146 -255 200 -9 6 -44 28 -77 50 -33 22 -68 44 -78
50 -59 34 -179 114 -218 147 -26 21 -52 38 -58 38 -18 0 -201 188 -201 206 0
8 -6 17 -14 20 -14 5 -86 143 -86 163 0 5 -6 14 -14 20 -7 6 -19 45 -25 86 -7
41 -17 73 -22 70 -5 -4 -9 -3 -10 2 0 4 -3 22 -5 38 -9 56 -2 179 11 205 7 14
16 47 20 73 4 26 11 47 16 47 5 0 15 12 21 28 33 74 126 173 203 216 17 9 37
20 45 25 45 27 115 55 200 78 84 23 114 26 255 26 144 1 168 -2 245 -25 86
-27 162 -60 234 -103 32 -19 43 -21 58 -12 15 10 18 25 18 109 0 82 3 99 18
107 27 16 49 13 76 -11z m2874 -1 c20 -21 22 -37 32 -327 6 -168 15 -318 20
-335 5 -16 10 -79 10 -140 2 -165 4 -155 -30 -155 -24 0 -35 7 -51 35 -11 19
-29 37 -40 40 -22 7 -23 14 -19 109 3 98 -9 214 -25 230 -8 7 -17 29 -20 49
-4 20 -14 42 -22 48 -8 7 -20 26 -27 43 -14 33 -120 146 -137 146 -6 0 -27 11
-47 25 -20 14 -43 25 -50 25 -7 0 -33 9 -58 21 -38 17 -66 20 -168 21 -107 0
-126 -2 -156 -21 -19 -11 -48 -21 -65 -21 -39 0 -57 -13 -49 -33 5 -14 0 -17
-24 -17 -46 0 -65 -9 -51 -26 9 -11 8 -15 -5 -20 -9 -3 -16 -17 -16 -30 0 -18
-6 -24 -21 -24 -16 0 -19 -4 -14 -20 3 -11 -3 -40 -15 -67 -17 -37 -23 -75
-27 -169 -5 -114 -4 -124 21 -187 28 -70 81 -157 96 -157 5 0 11 -9 15 -20 11
-35 153 -144 350 -269 28 -17 57 -36 65 -41 8 -5 38 -24 65 -42 173 -110 242
-160 332 -243 206 -190 295 -358 333 -627 9 -65 9 -96 1 -119 -6 -18 -11 -48
-11 -68 -1 -65 -71 -236 -101 -244 -11 -3 -19 -14 -19 -26 0 -14 -6 -21 -20
-21 -13 0 -20 -7 -20 -19 0 -14 -8 -21 -27 -23 -20 -2 -28 -9 -28 -23 0 -11
-7 -20 -15 -21 -39 -3 -42 -5 -37 -24 4 -18 0 -20 -35 -20 -30 0 -41 -4 -45
-18 -3 -13 -19 -22 -51 -28 -28 -6 -46 -14 -44 -22 1 -6 -1 -12 -5 -13 -78 -8
-103 -14 -130 -31 -26 -15 -62 -22 -160 -29 -71 -5 -132 -9 -138 -10 -5 0 -63
4 -129 10 -84 7 -130 16 -157 31 -22 11 -45 20 -51 20 -17 0 -135 59 -196 97
-34 22 -71 36 -104 40 l-51 6 6 -34 c10 -57 10 -260 0 -270 -6 -6 -14 -4 -23
6 -7 8 -18 15 -24 15 -6 0 -17 9 -24 20 -7 11 -18 20 -26 20 -20 0 -26 23 -26
107 0 66 2 75 20 80 20 5 27 27 11 37 -4 3 -12 135 -16 293 -11 376 -10 361
-18 369 -4 4 -7 1 -8 -7 -7 -112 -11 -113 -20 -9 -4 47 -11 102 -14 123 -7 36
-6 38 29 52 47 20 89 19 115 -2 19 -16 23 -33 31 -158 20 -287 107 -477 281
-611 100 -77 250 -125 364 -116 182 14 245 38 349 134 73 66 129 159 140 231
4 26 15 70 25 99 l17 51 21 -27 21 -26 7 48 c8 62 -2 142 -20 162 -8 9 -15 28
-15 41 0 14 -11 40 -25 59 -14 19 -25 41 -25 50 0 20 -20 45 -115 143 -58 60
-224 197 -239 197 -3 0 -31 17 -63 38 -32 22 -125 83 -208 137 -82 54 -186
128 -230 164 -105 85 -242 258 -259 327 -4 16 -14 37 -23 46 -8 9 -20 48 -26
87 -6 39 -14 71 -19 71 -5 0 -6 -11 -4 -25 3 -14 0 -25 -5 -25 -5 0 -9 26 -9
58 0 32 -5 63 -12 70 -19 19 -9 129 18 211 29 88 98 195 162 252 55 48 138
103 173 114 13 4 40 16 59 26 19 11 42 19 50 19 9 0 43 10 75 22 53 19 81 21
240 21 123 0 190 -4 210 -12 17 -7 53 -19 80 -26 28 -8 85 -32 129 -54 43 -23
83 -41 87 -41 5 0 9 33 9 74 0 71 2 76 34 110 39 42 73 46 104 13z m-10013
-85 c39 -12 76 -30 83 -39 7 -10 12 -47 12 -87 0 -76 25 -169 82 -311 11 -27
29 -75 40 -105 11 -30 24 -59 28 -65 4 -5 17 -35 28 -65 11 -30 30 -80 42
-110 12 -30 29 -77 37 -105 9 -27 19 -55 24 -61 5 -6 18 -35 28 -65 10 -30 29
-79 41 -109 24 -59 62 -158 89 -230 9 -25 22 -54 28 -65 6 -11 16 -38 23 -60
7 -22 19 -49 26 -60 8 -11 14 -26 14 -35 0 -8 11 -37 25 -65 13 -27 25 -57 25
-65 0 -8 12 -37 25 -65 14 -27 25 -57 25 -65 0 -8 9 -28 20 -45 11 -16 20 -38
20 -47 0 -10 11 -41 24 -70 13 -29 33 -75 44 -103 41 -102 95 -241 109 -280 8
-22 23 -58 34 -81 10 -22 19 -47 19 -55 0 -8 7 -25 16 -37 8 -12 22 -44 30
-72 8 -27 19 -52 24 -55 6 -4 17 -21 24 -40 8 -18 25 -41 39 -50 39 -25 139
-37 221 -26 62 9 75 14 102 44 29 31 33 42 38 118 4 46 7 590 9 1209 2 948 4
1128 16 1146 9 14 11 28 6 40 -5 11 -9 26 -10 34 -4 45 -19 101 -29 109 -23
18 -126 41 -184 41 -34 0 -72 4 -86 10 -31 11 -35 45 -7 60 12 6 128 10 308
10 277 0 290 -1 352 -24 37 -13 72 -33 82 -47 9 -13 56 -100 104 -194 48 -93
92 -175 97 -182 5 -6 28 -49 52 -95 24 -45 73 -139 109 -208 36 -69 87 -168
114 -220 27 -52 60 -112 72 -134 12 -21 42 -77 67 -125 24 -47 75 -144 113
-216 38 -71 106 -205 152 -297 46 -92 87 -168 91 -168 10 0 15 1668 4 1710
-14 58 -51 84 -141 103 -44 9 -101 17 -125 17 -25 0 -69 3 -97 6 -50 6 -53 8
-53 35 0 21 6 30 23 34 12 3 207 4 432 1 226 -2 421 -4 435 -4 14 0 250 2 525
4 474 4 502 3 535 -14 44 -24 69 -65 54 -89 -20 -33 -41 -38 -86 -24 -52 17
-306 27 -320 13 -6 -6 2 -14 24 -21 l33 -11 0 -1183 0 -1183 33 -65 c34 -65
97 -139 118 -139 6 0 23 -9 37 -20 57 -45 332 -51 450 -11 31 11 76 31 101 46
54 31 144 129 153 164 3 14 17 39 30 54 22 27 24 37 28 144 0 18 8 38 18 45
16 12 17 82 17 1047 l0 1033 -25 52 -26 52 -97 17 c-53 9 -124 19 -156 22 -71
7 -76 9 -76 40 0 17 7 26 23 30 12 3 192 5 400 3 l379 -3 24 -28 c30 -36 32
-82 3 -98 -16 -8 -34 -7 -78 4 -62 17 -82 20 -158 18 -57 -1 -69 -16 -33 -39
23 -14 27 -42 6 -42 -7 0 -19 7 -26 15 -16 19 -30 19 -30 1 0 -8 8 -17 18 -20
16 -5 17 -39 15 -548 -8 -1608 -8 -1636 -31 -1720 -40 -149 -112 -259 -169
-255 -21 2 -28 -2 -28 -18 0 -14 -7 -20 -25 -20 -20 0 -25 -5 -23 -22 2 -18
-2 -22 -26 -21 -34 1 -51 -8 -51 -28 0 -10 -12 -14 -44 -14 -40 0 -76 -18 -76
-38 0 -4 -42 -8 -92 -10 -51 -1 -124 -5 -163 -8 -113 -9 -283 11 -357 41 -205
84 -351 207 -407 343 -8 18 -19 36 -26 40 -8 4 -18 43 -24 86 -6 44 -18 87
-26 96 -13 15 -15 138 -13 999 3 814 5 983 17 990 9 6 11 16 5 32 -4 13 -9 31
-10 39 -11 60 -23 103 -30 109 -23 21 -113 41 -178 40 -62 -1 -66 -2 -32 -9
21 -4 47 -5 58 -3 10 3 18 1 18 -4 0 -15 -110 -16 -128 -1 -9 8 -13 8 -9 2 19
-32 -58 -47 -119 -24 -31 12 -178 15 -195 4 -15 -9 3 -24 37 -30 16 -3 36 -12
44 -20 12 -12 11 -14 -10 -14 -14 0 -38 7 -54 15 -30 16 -56 14 -56 -4 0 -6
12 -14 28 -17 15 -4 35 -11 44 -16 17 -8 17 -10 0 -46 -16 -34 -17 -128 -22
-1377 l-5 -1340 -37 -20 c-30 -16 -40 -17 -62 -7 -15 7 -35 26 -44 44 -9 17
-24 39 -33 48 -9 9 -19 34 -22 56 -4 21 -13 44 -20 49 -8 6 -18 25 -21 42 -4
17 -14 37 -21 43 -8 6 -19 28 -26 48 -6 20 -17 42 -23 47 -7 6 -18 26 -26 45
-7 19 -19 42 -25 50 -6 8 -18 31 -25 50 -8 19 -17 37 -21 40 -4 3 -17 26 -28
50 -12 25 -43 86 -70 135 -27 50 -66 123 -85 163 -20 39 -41 72 -46 72 -4 0
-14 17 -21 38 -6 20 -20 47 -30 60 -10 13 -21 36 -24 52 -4 17 -12 33 -19 37
-7 5 -19 25 -25 45 -7 21 -17 40 -21 43 -5 3 -18 25 -29 48 -11 23 -25 49 -31
57 -5 8 -17 31 -25 50 -25 56 -57 115 -65 120 -4 3 -12 22 -19 42 -7 20 -19
42 -27 48 -7 7 -14 18 -14 25 0 6 -9 22 -19 34 -11 13 -23 35 -26 51 -3 15
-15 36 -26 46 -10 9 -19 25 -19 34 0 10 -8 28 -18 41 -10 13 -25 40 -32 59 -8
19 -19 40 -26 45 -6 6 -17 27 -23 47 -7 20 -19 42 -27 48 -7 7 -14 16 -14 21
0 12 -18 50 -50 104 -16 28 -45 82 -65 122 -20 40 -44 73 -53 75 -8 2 -20 19
-27 38 -6 19 -21 39 -33 45 -12 5 -25 17 -27 26 -7 21 -35 33 -48 20 -6 -6 8
-29 40 -63 27 -29 54 -66 61 -81 9 -21 12 -268 12 -1013 0 -965 0 -986 20
-1048 32 -97 75 -125 195 -126 66 0 97 -21 93 -63 -3 -28 -8 -33 -58 -47 -38
-11 -68 -14 -95 -9 -22 5 -68 8 -103 9 -43 0 -80 7 -115 23 -58 24 -192 31
-218 11 -32 -26 -92 -34 -251 -35 -152 -1 -169 1 -214 22 -43 19 -69 23 -205
27 -154 4 -157 4 -197 -22 -35 -22 -53 -26 -114 -26 -60 1 -78 5 -100 23 -26
21 -26 23 -10 45 11 14 32 24 57 28 168 21 185 26 185 51 0 13 -6 26 -12 28
-8 3 -14 25 -14 51 -1 29 -9 56 -22 74 -11 15 -24 44 -27 64 -4 20 -13 40 -20
44 -7 4 -18 32 -25 62 -7 30 -18 62 -25 70 -7 8 -16 31 -20 50 -4 19 -16 46
-26 59 -11 13 -19 32 -19 41 0 39 -29 88 -57 95 -15 3 -34 11 -40 17 -19 15
-1381 17 -1387 2 -2 -6 -23 -14 -45 -18 -25 -4 -41 -12 -41 -20 0 -11 19 -12
90 -8 50 2 90 3 90 0 0 -2 -9 -23 -20 -46 -11 -22 -20 -47 -20 -54 0 -7 -12
-35 -25 -63 -14 -27 -25 -56 -25 -62 0 -7 -9 -27 -20 -45 -11 -18 -20 -40 -20
-48 0 -8 -7 -28 -16 -45 -59 -108 -57 -245 3 -270 10 -4 73 -11 140 -14 99 -5
125 -10 142 -25 44 -40 17 -70 -76 -85 -103 -17 -385 -1 -438 25 -56 27 -189
27 -230 0 -38 -25 -134 -24 -153 1 -28 38 -12 57 58 69 54 10 69 17 95 47 56
66 75 95 75 115 0 10 11 31 25 46 14 15 25 37 25 50 0 13 8 34 19 47 10 13 22
43 25 66 4 22 16 49 27 59 10 9 19 29 19 44 0 14 11 41 25 60 14 19 25 47 25
62 0 15 9 37 19 47 11 11 23 37 27 58 4 21 15 49 25 62 11 13 19 33 19 45 0
12 11 37 25 56 14 19 25 46 25 62 0 15 8 35 19 45 10 10 22 36 25 57 4 22 16
51 27 64 10 14 19 37 19 52 0 15 8 38 19 51 10 13 21 42 25 64 4 22 14 48 23
57 8 9 19 36 24 60 6 23 19 51 30 61 10 10 19 30 19 46 0 15 8 36 19 45 10 9
22 36 25 59 4 23 15 51 25 62 10 11 21 38 24 59 4 22 13 43 21 48 8 4 17 26
21 49 4 23 16 48 26 57 11 10 19 29 19 48 0 19 10 44 23 61 13 15 27 45 30 67
3 21 13 46 21 55 8 9 19 35 25 58 7 23 16 45 21 48 5 3 15 25 21 48 6 23 19
52 30 65 10 14 19 37 19 52 0 15 9 35 19 44 11 10 23 37 26 59 4 23 15 51 25
62 9 11 20 38 23 59 4 21 15 49 27 61 11 12 20 35 20 52 0 17 6 36 14 42 8 7
18 26 21 42 4 16 14 33 23 39 10 6 83 9 177 7 132 -2 172 -7 230 -25z m11312
22 c23 -6 38 -44 28 -73 -3 -10 -27 -24 -55 -33 -28 -9 -48 -13 -45 -8 7 11
-74 17 -138 10 -49 -5 -50 -6 -53 -40 -2 -19 -6 -53 -10 -75 -3 -22 -8 -270
-10 -551 -4 -452 -3 -513 11 -524 12 -10 112 -13 435 -15 392 -3 422 -2 442
15 l22 18 3 423 c5 569 2 532 34 536 20 3 28 -2 34 -19 8 -22 8 -22 12 5 4 25
6 27 17 12 10 -14 12 -10 13 25 1 26 -3 43 -11 46 -8 3 -14 24 -15 55 -1 62
-15 89 -45 89 -13 0 -41 6 -63 14 -54 19 -193 28 -187 11 3 -7 23 -11 49 -11
25 1 45 -2 45 -6 0 -5 -19 -8 -43 -8 -24 0 -47 -4 -52 -9 -16 -15 -61 -17 -79
-2 -30 25 -20 58 27 88 l42 28 494 3 c361 2 497 -1 507 -9 16 -13 18 -57 4
-79 -13 -21 -217 -29 -205 -8 6 10 5 11 -6 1 -7 -7 -35 -13 -61 -13 -46 0 -48
-1 -48 -27 1 -16 0 -609 0 -1320 0 -710 2 -1303 6 -1318 8 -34 38 -45 123 -45
90 0 173 -16 189 -37 6 -9 12 -32 12 -50 l0 -33 -112 5 c-164 8 -188 12 -241
35 -45 20 -62 21 -210 18 -142 -4 -168 -7 -209 -26 -40 -19 -63 -22 -155 -22
-139 1 -173 11 -173 51 0 42 30 56 138 62 115 6 137 21 145 100 4 29 10 75 15
102 6 28 10 263 11 524 1 260 4 477 6 481 3 4 21 6 40 3 28 -4 35 -1 35 12 0
9 4 14 9 11 19 -12 31 22 25 68 -8 53 -7 52 -109 81 -52 14 -109 16 -436 13
-270 -2 -380 -6 -390 -15 -8 -6 -34 -13 -58 -15 l-43 -3 1 -602 c1 -331 6
-615 11 -630 4 -16 11 -45 15 -66 8 -52 33 -64 142 -70 102 -5 138 -20 149
-62 13 -52 6 -55 -128 -48 -96 4 -133 10 -168 27 -41 19 -62 21 -220 21 -161
0 -178 -2 -213 -22 -34 -19 -54 -22 -164 -22 -69 0 -135 4 -148 9 -34 13 -38
48 -10 76 22 21 33 24 107 24 109 0 148 12 176 53 12 18 22 41 22 50 0 8 4 18
10 22 5 3 6 13 3 22 -4 10 -2 14 6 12 7 -3 11 -7 9 -11 -2 -3 6 -15 16 -27 15
-16 21 -18 28 -9 4 7 8 582 8 1278 0 987 -3 1270 -13 1289 -9 18 -27 28 -67
38 -65 16 -250 31 -250 21 0 -9 2 -9 87 -10 34 -1 60 -5 57 -10 -3 -4 -34 -8
-69 -8 -35 0 -67 -4 -70 -10 -9 -14 -48 -13 -63 2 -25 25 -14 66 25 93 l38 25
470 0 c258 0 480 -3 492 -6z m3128 -4 c212 -17 405 -70 579 -159 65 -33 134
-74 152 -91 19 -16 38 -30 42 -30 6 0 40 -29 146 -128 21 -20 57 -61 80 -91
22 -31 43 -58 46 -61 22 -20 80 -115 111 -180 6 -14 22 -47 35 -75 22 -47 31
-78 83 -265 31 -112 44 -338 30 -529 -6 -86 -15 -161 -20 -167 -5 -5 -15 -37
-23 -70 -21 -80 -59 -188 -72 -205 -6 -8 -17 -30 -23 -51 -7 -20 -18 -39 -26
-42 -8 -3 -15 -15 -15 -26 0 -12 -9 -24 -21 -28 -11 -5 -20 -12 -20 -17 1 -29
-14 -58 -35 -65 -14 -6 -24 -18 -24 -30 0 -13 -7 -20 -20 -20 -14 0 -20 -7
-20 -21 0 -12 -8 -23 -20 -26 -11 -3 -20 -11 -20 -17 0 -24 -25 -65 -42 -70
-10 -2 -18 -14 -18 -25 0 -16 -6 -21 -27 -21 -16 0 -35 -5 -43 -11 -13 -9 -13
-11 0 -17 10 -4 1 -10 -25 -18 -26 -7 -39 -16 -37 -26 1 -10 -8 -18 -28 -21
-21 -5 -30 -12 -30 -26 0 -14 -8 -21 -27 -23 -20 -2 -27 -8 -25 -20 2 -13 -7
-17 -40 -20 -36 -2 -44 -7 -46 -25 -3 -20 -10 -23 -44 -23 -31 0 -41 -4 -45
-19 -3 -14 -17 -20 -54 -25 -30 -4 -49 -12 -49 -20 0 -7 -6 -13 -12 -14 -7 -1
-44 -6 -81 -11 -49 -6 -72 -14 -82 -28 -12 -17 -28 -19 -142 -22 -70 -1 -137
-5 -149 -7 -39 -10 -329 15 -374 32 -25 9 -74 24 -110 34 -164 46 -370 139
-440 200 -16 14 -51 43 -77 65 -26 22 -73 67 -105 100 -31 33 -66 69 -78 81
-11 12 -20 25 -20 29 0 5 -8 17 -17 27 -21 24 -55 79 -83 136 -11 23 -25 42
-30 42 -6 0 -10 8 -10 18 0 9 -9 31 -19 49 -11 17 -24 58 -30 90 -6 32 -18 63
-26 69 -8 6 -15 27 -15 46 0 55 -11 98 -25 98 -22 0 -25 26 -26 193 0 179 -11
243 -23 139 -5 -42 -11 -60 -18 -56 -7 5 -8 2 -2 -7 12 -19 15 -38 15 -79 0
-19 5 -54 11 -77 6 -23 7 -50 3 -60 -5 -10 -7 -26 -6 -35 2 -14 -5 -18 -34
-18 -44 0 -56 25 -56 119 0 36 -1 145 -3 241 -3 187 -1 197 66 425 23 79 22
75 73 170 64 119 76 137 172 252 197 238 434 396 728 487 252 78 408 96 660
76z m3155 -12 c25 -10 70 -22 100 -29 82 -17 229 -92 296 -150 112 -97 117
-102 182 -187 38 -51 82 -129 82 -147 0 -7 7 -18 15 -25 8 -7 20 -31 25 -54 6
-22 17 -55 25 -73 20 -45 37 -188 36 -313 0 -116 -16 -257 -30 -274 -5 -6 -16
-38 -25 -70 -8 -33 -22 -63 -29 -68 -8 -4 -18 -24 -21 -43 -4 -20 -13 -38 -21
-41 -7 -3 -18 -19 -24 -35 -5 -16 -16 -29 -23 -29 -7 0 -21 -18 -31 -40 -9
-22 -22 -40 -27 -40 -6 0 -15 -11 -20 -25 -5 -14 -13 -25 -17 -24 -23 4 -33
-3 -33 -21 0 -14 -7 -20 -22 -20 -27 0 -51 -14 -46 -26 1 -5 -10 -15 -25 -22
-16 -8 -31 -20 -34 -28 -3 -8 -15 -14 -26 -14 -12 0 -31 -11 -42 -24 -13 -15
-34 -26 -55 -28 -24 -2 -34 -8 -33 -18 2 -12 -11 -16 -58 -18 -38 -2 -75 -11
-102 -25 -38 -20 -56 -22 -187 -21 -123 1 -153 4 -200 22 -30 12 -64 22 -75
22 -11 0 -29 6 -40 14 -11 7 -31 17 -44 21 -65 20 -213 143 -227 189 -4 12
-15 32 -25 45 -11 13 -19 34 -19 47 0 13 -9 31 -19 41 -14 13 -22 41 -29 103
l-10 85 1 -94 c1 -65 -3 -96 -11 -99 -9 -3 -9 -9 -2 -23 6 -10 8 -19 5 -19 -4
0 1 -7 10 -16 9 -9 15 -18 13 -20 -2 -1 -31 -4 -66 -5 -41 -2 -62 -6 -62 -15
0 -6 -7 -15 -15 -18 -14 -5 -15 -66 -13 -538 3 -557 6 -590 47 -603 9 -3 60
-9 113 -14 53 -5 105 -14 116 -20 24 -13 36 -43 27 -70 -6 -19 -13 -19 -133
-14 -102 5 -138 10 -184 29 -51 21 -73 24 -191 24 -119 0 -140 -3 -195 -25
-53 -21 -77 -25 -172 -25 -81 0 -110 3 -110 13 0 8 -3 8 -9 -2 -7 -11 -24 -12
-76 -7 -78 8 -100 17 -108 46 -9 37 32 53 156 60 128 8 144 13 160 49 9 19 13
345 15 1269 1 683 6 1241 11 1238 4 -3 8 1 8 9 0 8 -4 12 -9 9 -9 -6 -11 20
-1 29 3 4 12 2 19 -4 9 -7 18 -4 35 13 12 13 19 17 14 10 -5 -10 -1 -13 11
-12 44 5 51 0 58 -40 4 -23 11 -38 16 -35 7 4 11 -419 12 -1212 l3 -1218 5
1270 c3 699 3 1283 0 1299 -5 25 -13 31 -55 43 -55 16 -275 32 -275 21 0 -8
64 -12 128 -8 18 1 47 -2 65 -7 25 -6 7 -9 -83 -15 -63 -4 -144 -11 -180 -15
-80 -10 -92 -8 -108 18 -17 26 0 57 36 65 15 3 54 14 87 24 57 18 107 19 880
16 740 -1 824 -3 865 -18z m-20695 -78 c4 -6 -12 -10 -40 -10 -28 0 -44 4 -40
10 3 6 21 10 40 10 19 0 37 -4 40 -10z m4461 -1 c3 -5 -15 -9 -40 -9 -25 0
-48 4 -51 10 -3 5 13 9 40 8 25 0 48 -4 51 -9z m1339 1 c4 -6 -20 -10 -64 -10
-39 0 -71 4 -71 8 0 12 128 14 135 2z m2222 -3 c3 -4 -21 -7 -55 -7 -34 0 -62
4 -62 9 0 10 107 8 117 -2z m813 -677 c0 -5 -5 -10 -11 -10 -5 0 -7 5 -4 10 3
6 8 10 11 10 2 0 4 -4 4 -10z m6235 -749 c3 -5 2 -12 -3 -15 -5 -3 -9 1 -9 9
0 17 3 19 12 6z m-3455 -640 c0 -6 -4 -12 -8 -15 -5 -3 -9 1 -9 9 0 8 4 15 9
15 4 0 8 -4 8 -9z m-15885 -814 c32 -15 60 -38 77 -63 32 -45 51 -129 42 -183
-9 -55 -54 -132 -92 -158 -69 -46 -172 -38 -236 17 -81 72 -97 202 -40 318 26
51 34 59 79 74 68 23 111 22 170 -5z m12620 -544 c96 -31 149 -66 231 -149 76
-76 127 -175 144 -276 24 -142 -7 -335 -73 -460 -13 -25 -27 -54 -30 -64 -7
-20 -19 -41 -54 -91 -13 -17 -23 -38 -23 -46 0 -8 -9 -22 -19 -31 -11 -10 -25
-31 -31 -47 -9 -20 -19 -29 -36 -29 -25 0 -32 -14 -14 -25 21 -13 -9 -32 -42
-27 -33 5 -33 4 -15 -16 16 -17 16 -23 5 -41 -15 -24 -30 -28 -22 -6 4 10 0
15 -13 15 -16 0 -19 -7 -17 -40 2 -36 -1 -40 -21 -40 -26 0 -41 -15 -25 -25
20 -12 10 -25 -20 -25 -20 0 -30 -5 -30 -15 0 -8 5 -15 11 -15 5 0 7 -4 4 -10
-3 -5 -19 -10 -36 -10 -29 0 -39 -13 -19 -25 18 -11 0 -25 -31 -25 -26 0 -29
-3 -24 -20 5 -17 2 -20 -20 -20 -24 0 -26 -3 -21 -25 6 -22 3 -25 -19 -25 -18
0 -25 -5 -25 -20 0 -13 -9 -22 -25 -26 -16 -4 -24 -12 -23 -22 2 -10 -7 -18
-22 -22 -16 -4 -25 -13 -25 -25 0 -12 -9 -21 -25 -25 -17 -4 -21 -8 -12 -14 7
-4 20 -5 28 -2 10 4 14 1 12 -6 -3 -7 -14 -14 -26 -16 -13 -2 -19 -8 -16 -17
3 -7 -3 -19 -14 -26 -18 -13 -21 -53 -6 -68 10 -11 370 -12 491 -3 137 11 177
27 236 92 38 43 38 42 43 165 3 70 4 73 20 89 24 25 91 21 105 -5 16 -31 -8
-533 -28 -571 -17 -34 -62 -39 -70 -9 -10 38 -50 41 -555 41 -466 0 -491 1
-533 20 -42 19 -43 21 -50 79 -4 33 -4 64 -1 70 4 5 23 15 43 22 21 6 54 24
74 39 32 23 126 128 154 171 17 28 63 93 94 134 17 22 35 51 41 65 6 14 19 33
27 43 9 9 21 26 27 36 6 10 28 43 49 73 20 31 37 60 37 65 0 6 7 16 16 24 14
12 33 43 76 123 9 18 23 38 32 45 9 8 16 24 16 36 0 13 11 37 25 53 14 17 25
37 25 45 0 8 9 25 19 39 11 13 23 42 26 64 4 21 16 48 26 60 10 11 22 42 25
70 3 27 16 63 28 79 19 27 21 43 21 180 0 144 -1 152 -28 207 -28 57 -98 138
-119 138 -6 0 -22 10 -35 22 -21 19 -37 23 -121 26 -111 4 -177 -7 -177 -28 0
-8 -11 -17 -25 -18 -41 -6 -48 -21 -20 -42 l25 -19 -43 6 c-45 6 -57 -8 -22
-27 11 -6 20 -17 20 -25 0 -17 -26 -20 -35 -5 -8 14 -45 13 -45 -1 0 -6 9 -13
20 -16 26 -7 25 -25 -5 -111 -17 -50 -25 -93 -25 -141 0 -71 -7 -86 -45 -93
-15 -2 -19 3 -20 22 0 15 -7 26 -20 30 -61 16 -59 12 -67 232 -4 112 -9 226
-10 253 l-3 50 36 3 c23 2 49 -4 69 -16 l32 -20 81 30 c104 37 177 48 302 42
72 -3 123 -12 180 -31z m1405 6 c86 -31 140 -61 197 -107 63 -51 143 -148 175
-211 13 -25 30 -57 39 -71 33 -51 96 -245 110 -335 28 -179 37 -347 25 -485
-17 -203 -37 -296 -87 -408 -10 -23 -19 -49 -19 -56 0 -7 -9 -24 -19 -38 -11
-13 -23 -37 -27 -52 -3 -14 -14 -31 -24 -36 -10 -6 -20 -20 -22 -32 -2 -17 -9
-22 -25 -21 -17 2 -22 -3 -25 -25 -2 -19 -8 -27 -21 -26 -9 1 -17 -3 -16 -10
4 -25 -21 -64 -45 -70 -16 -4 -26 -13 -26 -25 0 -14 -10 -20 -40 -25 -31 -5
-40 -11 -40 -26 0 -16 -7 -20 -34 -20 -23 0 -40 -7 -48 -19 -10 -13 -36 -21
-103 -30 -115 -14 -108 -15 -190 2 -164 32 -346 179 -444 360 -17 31 -31 63
-31 71 0 7 -8 21 -19 30 -10 9 -24 43 -30 76 -7 33 -19 63 -27 68 -10 6 -16
34 -21 98 -3 49 -14 110 -24 136 -27 68 -31 467 -6 514 9 18 19 63 22 100 4
46 12 78 25 96 11 15 20 37 20 50 0 22 39 106 98 212 60 108 181 228 278 275
38 18 78 38 89 44 57 30 246 28 335 -4z m1418 -5 c92 -31 137 -59 216 -132 33
-30 91 -116 113 -167 69 -156 52 -387 -43 -579 -13 -28 -24 -56 -24 -62 0 -7
-6 -17 -12 -21 -13 -8 -30 -37 -71 -115 -12 -24 -24 -35 -33 -31 -10 4 -14 -3
-14 -21 0 -15 -11 -38 -24 -51 -14 -13 -26 -32 -28 -42 -2 -10 -13 -19 -26
-21 -12 -2 -22 -9 -21 -15 3 -27 -2 -37 -21 -37 -14 0 -20 -7 -20 -21 0 -13
-8 -23 -21 -26 -16 -5 -18 -8 -7 -15 10 -7 10 -10 -4 -19 -10 -5 -18 -17 -18
-25 0 -8 -11 -19 -25 -24 -14 -5 -25 -13 -24 -17 4 -22 -3 -33 -20 -33 -13 0
-21 -8 -23 -22 -2 -15 -11 -24 -26 -26 -14 -2 -22 -9 -20 -20 2 -10 -6 -18
-22 -22 -19 -5 -24 -12 -22 -28 2 -17 -2 -22 -17 -22 -14 0 -21 -6 -21 -20 0
-13 -9 -22 -25 -26 -15 -4 -25 -13 -25 -24 0 -12 -9 -20 -22 -22 -15 -2 -22
-9 -20 -20 2 -12 -6 -20 -23 -24 -19 -5 -24 -11 -20 -24 3 -11 0 -20 -10 -24
-8 -3 -15 -12 -15 -20 0 -9 -9 -20 -20 -26 -11 -6 -20 -19 -20 -29 0 -42 16
-44 308 -38 250 5 283 7 334 26 40 16 66 34 91 65 36 43 43 67 51 166 8 94 19
110 78 110 70 0 72 -4 66 -267 -4 -159 -2 -235 5 -240 6 -3 60 -7 120 -8 126
-1 161 13 182 75 11 33 12 34 19 10 7 -24 8 -24 16 -5 10 23 13 1395 4 1444
-5 24 -12 31 -30 31 -17 0 -24 -6 -24 -20 0 -15 -7 -20 -25 -20 -18 0 -25 -5
-25 -19 0 -11 -8 -26 -18 -33 -10 -7 -26 -30 -35 -50 -17 -36 -20 -38 -65 -38
-26 0 -57 -3 -69 -6 -16 -5 -23 -2 -23 8 0 8 50 82 112 164 143 191 298 421
298 441 0 26 40 83 70 98 36 19 61 19 86 1 19 -14 19 -36 19 -1031 l0 -1017
24 -19 c19 -16 40 -19 120 -19 115 0 161 -19 161 -69 0 -37 -6 -38 -165 -31
-114 6 -135 9 -170 31 -35 21 -52 24 -135 24 -85 0 -99 -3 -130 -25 -32 -23
-46 -25 -158 -28 -115 -3 -125 -2 -143 17 -24 26 -35 26 -56 2 -15 -19 -39
-19 -28 -1 3 4 -3 14 -12 21 -13 11 -119 15 -549 19 -408 4 -536 8 -546 18 -6
6 -20 12 -29 12 -19 0 -24 11 -34 78 -8 50 2 66 52 87 19 8 49 27 67 42 39 32
146 156 146 168 0 5 8 18 19 29 19 22 268 391 310 461 57 93 171 320 171 339
0 7 10 33 23 57 13 24 28 69 34 99 7 30 17 69 24 85 7 17 11 34 10 38 -1 5 3
6 9 2 5 -3 11 -14 11 -23 4 -48 18 87 18 176 1 98 -1 106 -34 172 -34 68 -95
140 -117 140 -7 0 -22 10 -35 22 -20 18 -38 23 -113 26 -119 6 -181 -4 -187
-29 -4 -13 -14 -19 -34 -19 -24 0 -29 -4 -29 -25 0 -18 -5 -25 -20 -25 -15 0
-20 -7 -20 -25 0 -18 -5 -25 -19 -25 -15 0 -19 -7 -19 -32 0 -18 -8 -53 -17
-78 -27 -73 -35 -112 -35 -172 0 -56 -12 -83 -24 -53 -3 8 -13 15 -23 15 -10
0 -27 7 -38 16 -18 14 -20 30 -25 210 -4 153 -8 197 -19 203 -17 11 -17 77 0
97 17 20 73 17 93 -4 16 -18 45 -22 76 -9 133 54 209 67 349 61 78 -3 124 -11
179 -30z m-4738 -1664 c11 -7 4 -10 -25 -10 -29 0 -36 3 -25 10 8 5 20 10 25
10 6 0 17 -5 25 -10z m70 -4 c-38 -13 -45 -13 -35 3 3 6 21 11 38 10 l32 0
-35 -13z m5664 -1132 c15 -22 15 -29 4 -55 -15 -33 -20 -35 -42 -13 -21 20
-20 53 1 76 20 22 17 23 37 -8z m-152 -86 c-7 -7 -12 -21 -12 -33 0 -12 -5
-26 -11 -32 -6 -6 -16 -21 -23 -34 -15 -30 -29 -29 -40 3 -7 20 -5 37 9 67 16
37 22 41 54 41 27 0 32 -3 23 -12z m-7204 -370 c2 -13 -1 -16 -12 -12 -9 3
-22 1 -29 -4 -13 -11 -72 -3 -98 13 -21 14 19 24 81 22 43 -2 56 -6 58 -19z
m19464 -78 c21 -6 61 -32 89 -58 50 -46 51 -48 52 -107 0 -71 -16 -127 -50
-173 -31 -41 -58 -52 -137 -53 -99 -2 -177 41 -217 119 -41 81 -4 208 72 247
58 30 135 40 191 25z m-19811 -53 c-13 -13 -26 -3 -16 12 3 6 11 8 17 5 6 -4
6 -10 -1 -17z m-86 3 c-19 -8 -19 -9 2 -9 12 -1 23 4 25 11 3 7 9 8 18 3 10
-6 5 -12 -21 -20 -25 -9 -36 -9 -41 -1 -6 8 -11 6 -18 -4 -9 -13 -11 -13 -20
0 -7 12 -4 16 18 21 40 10 60 9 37 -1z m8142 -506 c-3 -3 -12 -4 -19 -1 -8 3
-5 6 6 6 11 1 17 -2 13 -5z m676 -298 c9 -7 17 -16 17 -20 0 -4 9 -20 21 -35
17 -23 21 -44 22 -105 1 -42 5 -76 9 -76 4 0 8 -7 8 -15 0 -7 6 -18 13 -22 7
-4 21 -42 32 -83 10 -41 25 -90 32 -108 8 -18 11 -38 7 -44 -4 -7 -3 -8 4 -4
7 4 12 1 12 -6 1 -7 3 -30 6 -50 6 -41 1 -46 -22 -23 -17 17 -39 21 -29 5 10
-16 -8 -11 -35 10 -14 11 -30 20 -37 20 -17 0 -34 35 -27 54 12 30 -31 230
-46 221 -6 -3 -7 1 -4 10 4 10 -4 25 -20 40 -15 14 -24 25 -20 25 3 0 -1 11
-9 24 -9 13 -18 46 -21 74 -4 43 -1 55 20 79 13 15 24 31 24 36 0 11 23 8 43
-7z m166 -684 c0 -24 -1 -25 -9 -7 -12 28 -12 47 0 40 6 -3 10 -18 9 -33z m15
-168 c3 -8 2 -12 -4 -9 -6 3 -10 10 -10 16 0 14 7 11 14 -7z m-10567 -54 c-3
-11 -1 -20 5 -20 6 0 8 -9 5 -20 -3 -13 0 -20 8 -20 26 0 21 -104 -6 -120 -7
-5 -12 -31 -12 -64 0 -40 -4 -56 -13 -56 -21 0 -29 45 -29 160 0 119 8 160 31
160 11 0 15 -6 11 -20z m10506 -110 c-7 -28 -13 -25 -13 6 0 14 4 23 9 20 5
-3 7 -15 4 -26z m134 -72 c17 -15 23 -33 23 -62 0 -23 7 -70 16 -106 8 -36 19
-86 24 -112 12 -65 15 -221 4 -225 -5 -1 -18 4 -29 13 -16 11 -21 31 -26 98
l-7 84 -51 49 c-34 33 -51 57 -51 73 0 14 -5 42 -11 64 -8 27 -8 41 0 49 6 6
11 22 11 37 0 31 14 55 28 46 6 -3 13 -2 17 4 10 16 27 12 52 -12z m144 -614
c-2 -44 -6 -83 -9 -89 -4 -5 -7 -12 -8 -15 0 -3 -5 -18 -10 -35 -8 -29 -9 -28
-15 20 -9 66 -11 210 -2 218 3 4 16 1 27 -7 19 -12 21 -22 17 -92z m29 -708
c0 -3 -4 -8 -10 -11 -5 -3 -10 -1 -10 4 0 6 5 11 10 11 6 0 10 -2 10 -4z
m1330 -856 c0 -5 -5 -10 -11 -10 -5 0 -7 5 -4 10 3 6 8 10 11 10 2 0 4 -4 4
-10z m-80 -25 c-7 -9 -15 -13 -17 -11 -7 7 7 26 19 26 6 0 6 -6 -2 -15z
m-6340 -265 c6 -34 4 -42 -11 -50 -26 -14 -36 23 -15 55 10 15 12 25 6 25 -6
0 -8 5 -5 11 10 15 17 5 25 -41z m-8100 -2575 c0 -13 5 -27 10 -30 11 -7 4
-25 -9 -25 -13 0 -30 47 -24 69 7 27 23 17 23 -14z m56 -97 c9 -82 15 -98 39
-104 26 -6 41 -39 70 -149 15 -59 20 -78 30 -140 3 -16 7 -39 9 -50 2 -11 7
-42 10 -68 4 -27 18 -64 31 -83 13 -19 26 -54 29 -77 14 -108 15 -127 6 -132
-20 -12 -48 34 -60 99 -7 36 -19 70 -26 74 -8 4 -21 41 -30 82 -8 41 -23 83
-32 93 -11 12 -24 68 -39 164 -13 80 -27 151 -32 157 -5 6 -12 36 -16 66 -4
30 -13 62 -19 72 -9 15 -8 21 4 28 19 12 22 8 26 -32z m16796 -178 c17 -36 22
-93 6 -84 -4 3 -8 0 -8 -5 0 -6 5 -11 10 -11 6 0 6 -7 -1 -18 -12 -19 -32 -24
-59 -16 -13 5 -13 6 0 14 12 7 7 11 -17 16 -18 4 -33 11 -33 16 0 5 -9 6 -20
3 -22 -7 -28 10 -7 19 8 4 7 5 -3 5 -8 -1 -24 -1 -35 0 -19 2 -19 3 2 13 12 6
27 22 33 37 12 30 42 46 85 46 24 0 33 -7 47 -35z m-190 -74 c10 6 3 -60 -9
-79 -3 -6 -1 -7 5 -3 8 5 12 -8 11 -41 0 -26 2 -58 5 -70 3 -13 1 -23 -4 -23
-5 0 -6 -8 -3 -17 7 -17 6 -17 -11 0 -9 9 -26 17 -37 17 -18 0 -20 5 -14 48 8
53 25 111 38 130 6 7 6 12 -1 12 -6 0 -8 10 -4 22 3 12 7 17 10 10 2 -7 8 -9
14 -6z m63 -234 c23 -4 38 -17 41 -34 1 -7 3 -17 5 -23 4 -18 -13 -65 -22 -59
-5 3 -9 1 -9 -4 0 -5 -15 -17 -34 -26 -39 -18 -50 -20 -41 -6 3 6 2 10 -3 10
-9 0 -1 55 20 135 7 26 13 35 17 25 3 -8 15 -17 26 -18z m-143 -122 c6 0 8
-11 6 -25 -5 -25 7 -35 14 -13 3 8 10 4 17 -11 8 -14 9 -21 2 -17 -14 9 -14
-9 0 -36 6 -12 7 -23 2 -27 -13 -9 -31 -76 -40 -151 l-8 -65 -52 -9 c-29 -5
-53 -13 -53 -19 0 -6 -5 -5 -13 1 -10 8 -12 3 -9 -26 3 -31 -3 -44 -33 -77
-19 -22 -34 -33 -33 -25 2 8 -3 14 -9 13 -8 -2 -12 6 -10 19 1 15 -5 26 -20
33 -15 6 -21 16 -18 30 2 11 4 23 4 26 1 4 19 9 42 13 39 6 41 8 37 36 -2 16
-1 27 4 24 17 -11 7 8 -17 30 -14 13 -25 30 -25 38 0 8 -5 19 -10 24 -15 15
-15 117 0 143 6 12 26 31 43 41 18 11 28 20 23 20 -5 0 -3 6 3 14 7 9 23 13
38 10 14 -3 30 -1 37 5 22 18 61 17 64 -1 2 -10 8 -18 14 -18z m-16258 -234
c9 -19 16 -46 16 -61 0 -17 11 -36 31 -54 27 -25 32 -38 40 -106 7 -63 13 -84
33 -104 14 -15 32 -46 41 -71 9 -24 24 -54 35 -65 25 -26 40 -68 40 -110 0
-24 5 -35 19 -40 33 -10 52 -42 77 -125 20 -70 29 -86 69 -122 44 -39 46 -43
44 -92 -1 -28 -8 -87 -16 -130 -9 -50 -13 -107 -9 -150 3 -39 8 -104 12 -145
l6 -74 -28 7 c-39 10 -42 13 -60 82 -8 32 -23 73 -34 90 -10 18 -28 70 -39
115 -12 46 -30 107 -41 134 -35 93 -80 250 -91 315 -6 36 -19 88 -29 115 -10
28 -21 73 -25 100 -4 28 -20 73 -35 100 -15 28 -31 68 -35 90 -4 21 -16 57
-27 79 -16 31 -22 67 -26 148 -5 115 3 135 32 74z m14886 -1308 c0 -5 -11 -8
-25 -8 -27 0 -28 1 -19 24 5 12 9 13 25 3 10 -6 19 -15 19 -19z m107 -42 c24
-4 25 -14 3 -26 -27 -14 -46 -8 -52 18 -5 17 -2 20 16 16 11 -3 26 -6 33 -8z
m1116 -979 c7 3 9 3 5 -2 -4 -4 1 -15 11 -24 42 -37 54 -107 26 -160 -11 -22
-24 -30 -55 -35 -64 -10 -118 10 -139 53 -18 36 -18 111 0 111 5 0 9 6 9 13 0
8 12 19 28 26 15 8 34 17 42 21 8 4 26 3 38 -1 13 -5 29 -6 35 -2z m6855 -9
c64 -20 74 -27 117 -93 50 -75 65 -85 131 -92 91 -9 111 -23 151 -111 19 -42
38 -94 43 -117 4 -22 15 -71 23 -110 9 -38 21 -118 28 -176 12 -102 11 -108
-9 -151 -12 -24 -22 -52 -22 -62 0 -49 -98 -94 -225 -102 -38 -3 -89 -9 -111
-14 -49 -11 -185 -24 -232 -22 -18 1 -58 11 -90 23 -31 12 -77 25 -103 29
-117 21 -232 68 -251 103 -6 12 -25 35 -43 52 -31 29 -32 33 -45 164 -14 146
-6 288 24 415 17 75 25 88 55 93 11 1 40 17 66 35 25 18 99 60 163 94 116 60
118 60 197 59 44 -1 104 -9 133 -17z m-8745 -1203 c-7 -21 -13 -19 -13 6 0 11
4 18 10 14 5 -3 7 -12 3 -20z m-70 -62 c-5 -12 -2 -15 9 -11 11 5 14 1 10 -18
-2 -14 0 -24 7 -24 6 0 11 -7 11 -16 0 -8 -4 -13 -9 -9 -5 3 -12 1 -15 -4 -8
-12 -79 -10 -88 3 -13 19 -8 46 10 53 9 4 19 9 22 12 4 5 41 29 47 30 1 1 -1
-7 -4 -16z m5131 -109 c49 -7 62 -29 31 -54 -19 -16 -91 -6 -113 16 -11 12
-27 15 -57 11 -22 -3 -46 -2 -53 2 -7 4 9 8 38 9 27 0 58 5 67 11 22 12 27 13
87 5z m533 -191 c-3 -10 -5 -2 -5 17 0 19 2 27 5 18 2 -10 2 -26 0 -35z
m-22945 -1239 c7 -14 24 -32 40 -40 24 -12 26 -17 18 -40 -13 -34 -7 -42 59
-72 66 -29 111 -30 177 0 39 17 60 20 118 15 91 -7 92 -7 128 -39 17 -16 42
-28 57 -28 38 0 81 -33 102 -77 10 -21 18 -44 19 -50 0 -7 4 -13 9 -13 5 0 29
-39 53 -86 23 -47 52 -96 63 -108 14 -15 20 -36 20 -71 1 -28 12 -99 25 -160
22 -98 25 -132 24 -320 -1 -177 -4 -223 -22 -295 -11 -47 -28 -141 -36 -209
-9 -68 -19 -128 -22 -132 -3 -5 -18 -56 -35 -114 -16 -59 -38 -123 -48 -143
-10 -20 -22 -53 -26 -72 -4 -19 -17 -51 -29 -70 -13 -19 -26 -46 -31 -60 -8
-29 -49 -93 -81 -130 -23 -26 -116 -206 -129 -250 -8 -26 -67 -135 -88 -161
-6 -9 -21 -21 -33 -27 -34 -18 -226 -42 -338 -42 -174 0 -524 29 -606 49 -41
11 -104 25 -140 31 -36 6 -87 22 -115 35 -27 13 -69 29 -92 35 -22 6 -50 18
-61 28 -33 29 -100 261 -114 392 -17 167 -21 490 -9 675 6 88 14 221 17 295 4
74 11 143 15 152 5 9 9 32 9 50 0 46 45 207 79 286 16 37 33 85 37 107 5 27
19 51 44 75 20 19 50 64 67 100 16 36 52 88 79 117 27 29 68 74 90 100 23 27
54 55 70 63 16 8 35 21 42 28 7 6 17 12 22 12 5 0 20 11 34 25 14 14 28 25 32
25 3 0 18 9 33 19 15 11 40 23 57 27 16 4 34 10 39 14 6 3 39 19 75 35 68 31
124 41 228 44 58 1 63 -1 74 -25z m9123 -1073 c3 -5 1 -12 -5 -16 -5 -3 -10 1
-10 9 0 18 6 21 15 7z m584 -2032 c15 -11 43 -23 62 -25 45 -7 116 -76 130
-127 7 -26 7 -55 -2 -95 -6 -31 -15 -79 -20 -105 -17 -101 -69 -144 -187 -157
-73 -7 -241 19 -270 42 -8 7 -29 42 -46 78 -28 59 -31 73 -29 155 1 50 4 99 6
110 3 11 6 28 6 37 1 22 43 44 101 52 80 12 145 29 165 42 27 19 51 17 84 -7z
m-7654 -949 c27 -30 5 -73 -47 -94 -65 -25 -77 -4 -52 86 9 31 73 37 99 8z
m18755 -130 c0 -5 -4 -10 -10 -10 -5 0 -10 5 -10 10 0 6 5 10 10 10 6 0 10 -4
10 -10z m-310 -66 c0 -2 -7 -4 -15 -4 -8 0 -15 4 -15 10 0 5 7 7 15 4 8 -4 15
-8 15 -10z m73 -16 c-2 -5 3 -8 12 -8 9 0 14 4 10 9 -3 6 9 5 30 0 19 -6 40
-7 45 -4 6 3 10 1 10 -4 0 -6 -7 -11 -15 -11 -18 0 -20 -26 -2 -33 6 -2 -5 -8
-25 -12 -21 -4 -38 -10 -38 -14 0 -13 -114 1 -130 15 -12 12 -11 14 10 14 20
0 22 -2 10 -10 -13 -8 -12 -10 3 -10 9 0 17 5 17 10 0 6 8 10 18 10 14 0 15
-2 2 -10 -13 -8 -13 -10 1 -10 9 0 19 3 23 7 4 4 23 8 42 9 19 0 37 4 41 8 12
12 -16 30 -49 31 -18 0 -53 2 -78 4 -41 3 -43 4 -15 10 39 9 84 8 78 -1z m-93
-28 c0 -5 -2 -10 -4 -10 -3 0 -8 5 -11 10 -3 6 -1 10 4 10 6 0 11 -4 11 -10z
m43 3 c-7 -2 -19 -2 -25 0 -7 3 -2 5 12 5 14 0 19 -2 13 -5z m98 -12 c-8 -5
-20 -7 -28 -4 -21 8 -15 13 15 13 20 0 23 -3 13 -9z m-21365 -62 c54 -33 71
-121 49 -255 -8 -46 -59 -111 -101 -129 -62 -26 -155 -20 -222 14 -80 41 -92
65 -92 191 0 173 29 200 214 200 103 0 123 -3 152 -21z m3620 -861 c45 -30 54
-32 120 -29 55 2 73 -1 83 -13 18 -21 9 -101 -14 -126 -22 -25 -12 -40 29 -40
23 0 41 -9 61 -30 20 -21 38 -30 60 -30 42 0 60 -22 90 -110 19 -56 25 -94 25
-159 0 -93 -7 -134 -22 -129 -11 4 -51 101 -73 174 -8 28 -23 57 -32 66 -29
25 -82 39 -103 28 -28 -15 -59 -12 -88 8 -15 9 -35 22 -46 27 -10 6 -27 37
-37 70 -20 64 -69 119 -139 155 -40 20 -80 70 -80 98 0 11 12 31 26 46 36 36
78 34 140 -6z m-626 -153 l24 -25 -21 -21 -20 -21 -42 21 c-35 19 -40 24 -31
40 20 38 58 40 90 6z m115 -35 c-3 -5 -10 -10 -16 -10 -5 0 -9 5 -9 10 0 6 7
10 16 10 8 0 12 -4 9 -10z m523 -202 c7 -7 12 -20 12 -30 0 -12 19 -27 58 -46
l57 -27 6 -75 c3 -44 16 -98 29 -130 20 -46 24 -71 23 -150 -1 -61 3 -106 13
-128 11 -27 12 -43 3 -76 -15 -54 -42 -107 -68 -130 -12 -11 -21 -26 -21 -34
0 -12 -3 -12 -15 -2 -8 7 -12 16 -9 21 3 5 1 9 -4 9 -12 0 -34 88 -34 137 0
46 -40 138 -66 152 -30 16 -36 77 -10 113 30 43 20 115 -31 220 -54 110 -54
135 -1 170 30 21 42 22 58 6z m18038 -136 c-9 -9 -37 8 -31 18 5 8 11 7 21 -1
8 -6 12 -14 10 -17z m-6 -32 c0 -5 -7 -10 -15 -10 -8 0 -15 5 -15 10 0 6 7 10
15 10 8 0 15 -4 15 -10z m4220 -459 c0 -32 -21 -91 -31 -86 -5 4 -9 -1 -9 -9
0 -16 -38 -42 -47 -32 -11 11 -20 132 -11 152 9 20 12 20 54 6 28 -9 44 -20
44 -31z m-327 -112 c15 -16 15 -19 2 -19 -9 0 -15 -9 -15 -25 0 -21 -5 -25
-30 -25 -25 0 -30 4 -30 25 0 17 -6 25 -17 25 -14 0 -13 4 6 24 25 27 55 25
84 -5z m-2473 -23 c0 -7 10 -16 21 -19 15 -4 20 -11 16 -21 -5 -11 0 -16 13
-16 10 0 22 -4 25 -10 3 -5 -2 -10 -11 -10 -10 0 -33 16 -51 36 -34 37 -41 54
-23 54 6 0 10 -6 10 -14z m-1744 -93 c-10 -10 -19 5 -10 18 6 11 8 11 12 0 2
-7 1 -15 -2 -18z m3946 -33 c-5 -35 4 -38 29 -8 11 11 19 16 19 10 0 -6 -7
-18 -16 -26 -8 -9 -13 -20 -10 -25 3 -4 -3 -16 -14 -26 -17 -16 -21 -16 -35
-2 -16 17 -20 47 -6 47 5 0 14 14 20 30 5 17 12 30 14 30 2 0 2 -13 -1 -30z
m358 20 c0 -5 -4 -10 -10 -10 -5 0 -10 5 -10 10 0 6 5 10 10 10 6 0 10 -4 10
-10z m60 -20 c0 -5 7 -10 15 -10 10 0 15 -10 15 -31 0 -27 -2 -30 -15 -19 -8
7 -15 20 -15 29 0 9 -5 22 -12 29 -9 9 -9 12 0 12 7 0 12 -4 12 -10z m-21978
-52 c-6 -6 -15 -8 -19 -4 -4 4 -1 11 7 16 19 12 27 3 12 -12z m19538 -18 c0
-5 -2 -10 -4 -10 -3 0 -8 5 -11 10 -3 6 -1 10 4 10 6 0 11 -4 11 -10z m2885
-21 c29 -26 35 -38 35 -70 0 -25 5 -42 14 -45 23 -9 7 -41 -40 -80 -33 -26
-43 -41 -39 -54 4 -13 -1 -22 -14 -29 -26 -14 -61 -14 -61 1 0 6 -3 8 -7 4
-10 -10 -34 93 -28 118 5 17 4 18 -4 6 -20 -28 -12 48 9 90 11 22 20 45 20 53
0 45 66 49 115 6z m403 24 c-10 -2 -26 -2 -35 0 -10 3 -2 5 17 5 19 0 27 -2
18 -5z m145 0 c-7 -2 -19 -2 -25 0 -7 3 -2 5 12 5 14 0 19 -2 13 -5z m59 -18
c3 -14 1 -25 -3 -25 -5 0 -9 11 -9 25 0 14 2 25 4 25 2 0 6 -11 8 -25z m1148
-5 c0 -29 2 -30 43 -31 23 0 36 -3 30 -6 -7 -2 -13 -16 -13 -29 0 -23 -3 -24
-60 -24 l-60 0 0 60 0 60 30 0 c27 0 30 -3 30 -30z m-3669 -57 c8 -22 7 -30
-5 -39 -19 -14 -213 -17 -221 -3 -4 5 -1 9 5 9 6 0 18 7 26 15 9 9 34 15 60
15 32 0 44 4 44 15 0 11 11 15 40 15 35 0 42 -4 51 -27z m999 7 c0 -11 -4 -20
-9 -20 -5 0 -7 9 -4 20 3 11 7 20 9 20 2 0 4 -9 4 -20z m2810 0 c0 -5 -4 -10
-10 -10 -5 0 -10 5 -10 10 0 6 5 10 10 10 6 0 10 -4 10 -10z m-4640 -40 c0 -5
-4 -10 -10 -10 -5 0 -10 5 -10 10 0 6 5 10 10 10 6 0 10 -4 10 -10z m4640 0
c0 -5 -4 -10 -10 -10 -5 0 -10 5 -10 10 0 6 5 10 10 10 6 0 10 -4 10 -10z m80
-5 c0 -8 -4 -15 -10 -15 -5 0 -10 7 -10 15 0 8 5 15 10 15 6 0 10 -7 10 -15z
m80 -10 c0 -2 -60 1 -68 4 -2 1 -1 5 3 10 5 8 65 -5 65 -14z m-7246 -8 c-3 -8
-12 -14 -21 -14 -13 0 -13 2 3 14 22 16 25 16 18 0z m7126 3 c0 -5 -2 -10 -4
-10 -3 0 -8 5 -11 10 -3 6 -1 10 4 10 6 0 11 -4 11 -10z m-3666 -22 c18 -25
21 -74 7 -111 -10 -26 -43 -43 -71 -38 -21 4 -51 32 -44 42 3 5 1 9 -5 9 -6 0
-8 6 -6 13 2 6 9 31 15 54 10 41 19 47 72 52 9 0 24 -9 32 -21z m940 -29 c-3
-5 -10 -7 -15 -3 -5 3 -7 10 -3 15 3 5 10 7 15 3 5 -3 7 -10 3 -15z m-690 -12
c25 -25 36 -57 32 -93 -5 -42 -45 -87 -66 -74 -7 4 -21 5 -31 3 -43 -12 -73
67 -43 113 9 13 12 24 8 25 -7 0 72 36 84 38 2 1 9 -5 16 -12z"/>
<path d="M13348 26793 c23 -2 59 -2 80 0 20 2 1 4 -43 4 -44 0 -61 -2 -37 -4z"/>
<path d="M14558 26793 c7 -3 16 -2 19 1 4 3 -2 6 -13 5 -11 0 -14 -3 -6 -6z"/>
<path d="M8693 26503 c-7 -15 -12 -27 -10 -28 1 0 14 -6 30 -13 61 -26 92
-127 59 -195 -50 -106 -72 -159 -72 -176 0 -10 -9 -28 -20 -41 -11 -13 -20
-30 -20 -39 0 -9 -11 -37 -25 -63 -14 -26 -25 -54 -25 -62 0 -8 -11 -36 -25
-62 -14 -26 -25 -53 -25 -61 0 -8 -9 -26 -20 -40 -11 -14 -20 -33 -20 -41 0
-8 -11 -38 -24 -66 -12 -28 -33 -76 -46 -106 -12 -30 -33 -78 -46 -105 -13
-28 -24 -57 -24 -65 0 -8 -7 -24 -16 -35 -8 -11 -19 -38 -25 -60 -6 -22 -17
-47 -24 -55 -7 -8 -18 -34 -24 -57 -7 -23 -16 -45 -21 -48 -5 -3 -16 -30 -24
-60 -9 -30 -21 -57 -26 -60 -18 -11 -12 -73 9 -84 20 -11 1105 -11 1116 0 13
14 23 69 13 75 -5 3 -7 17 -4 30 4 13 -1 43 -10 66 -8 24 -22 63 -30 87 -8 25
-20 52 -28 60 -8 9 -17 32 -21 51 -4 19 -15 49 -24 66 -10 16 -21 47 -25 68
-4 20 -13 39 -20 42 -8 3 -16 22 -20 43 -3 20 -17 59 -31 85 -14 26 -25 55
-25 66 0 10 -6 25 -13 32 -7 7 -19 36 -27 63 -7 28 -21 64 -31 81 -11 17 -19
41 -19 52 0 12 -8 29 -19 39 -10 10 -21 36 -25 58 -4 22 -16 57 -27 78 -10 21
-19 46 -19 56 0 10 -9 30 -20 43 -10 14 -24 47 -30 74 -6 27 -17 56 -25 64 -8
8 -16 27 -18 41 -3 14 -14 43 -26 65 -12 21 -21 44 -21 51 0 24 -23 63 -42 69
-10 3 -26 14 -36 24 -17 18 -18 18 -29 -7z"/>
<path d="M14245 24210 c-8 -13 15 -24 27 -12 6 6 4 11 -6 15 -8 3 -18 2 -21
-3z"/>
<path d="M20313 26793 c9 -2 23 -2 30 0 6 3 -1 5 -18 5 -16 0 -22 -2 -12 -5z"/>
<path d="M21673 26793 c15 -2 37 -2 50 0 12 2 0 4 -28 4 -27 0 -38 -2 -22 -4z"/>
<path d="M23194 26753 c-12 -12 -41 -20 -93 -24 -62 -5 -77 -10 -89 -28 -10
-14 -25 -21 -46 -21 -35 0 -61 -13 -53 -27 3 -5 -15 -15 -41 -22 -34 -9 -43
-14 -32 -21 13 -8 12 -10 0 -14 -8 -3 -26 -6 -40 -8 -17 -2 -26 -10 -28 -25
-2 -14 -11 -23 -25 -25 -14 -2 -23 -11 -25 -25 -2 -15 -10 -23 -22 -23 -12 0
-20 -8 -22 -22 -2 -13 -9 -24 -15 -24 -7 -1 -18 -2 -24 -3 -5 0 -9 -11 -7 -23
2 -17 -2 -23 -17 -23 -11 0 -20 -7 -20 -15 -1 -42 -18 -80 -33 -78 -12 2 -18
-5 -20 -24 -2 -19 -9 -28 -21 -28 -14 0 -20 -11 -25 -48 -3 -26 -12 -57 -20
-67 -8 -11 -20 -40 -27 -65 -7 -25 -19 -50 -25 -57 -7 -7 -15 -41 -19 -75 -4
-35 -14 -88 -22 -118 -20 -71 -22 -89 -28 -245 -6 -136 9 -389 26 -432 5 -13
14 -56 20 -96 11 -71 63 -222 80 -233 5 -3 9 -13 9 -22 0 -24 46 -112 107
-207 181 -279 430 -460 663 -481 95 -9 281 11 334 36 25 11 56 20 69 20 13 0
35 8 48 18 13 10 35 23 49 30 92 46 259 197 306 278 14 24 29 44 33 44 21 0
161 322 161 369 0 15 10 54 22 87 20 54 22 83 27 359 l6 300 34 3 c23 2 39 -2
51 -16 24 -26 13 -37 -14 -15 -15 14 -18 14 -8 2 6 -9 8 -19 4 -23 -4 -4 -2
-7 3 -6 22 5 46 -1 41 -9 -3 -5 2 -8 12 -7 15 1 17 -10 19 -85 1 -47 6 -95 10
-106 9 -25 5 280 -4 317 -4 14 -7 29 -7 33 -1 4 -6 11 -12 15 -6 4 -14 40 -17
80 -3 41 -12 84 -20 96 -8 12 -18 36 -22 54 -3 18 -12 38 -18 45 -7 6 -20 37
-30 68 -9 31 -24 62 -32 69 -8 7 -15 18 -15 25 0 7 -7 19 -17 26 -9 8 -25 33
-35 57 -10 23 -23 42 -27 42 -4 0 -13 10 -19 23 -28 58 -237 265 -317 314 -57
35 -165 82 -205 88 -25 4 -62 14 -84 21 -27 10 -90 14 -207 14 -146 0 -170 -2
-185 -17z m1104 -980 c6 -2 12 4 12 14 0 14 2 14 20 -2 19 -17 20 -17 21 1 0
12 3 14 6 6 3 -7 17 -18 32 -24 l26 -10 -23 -9 c-30 -11 -116 -16 -119 -6 -2
4 -3 19 -2 35 0 18 3 22 7 12 4 -8 13 -16 20 -17z"/>
<path d="M24320 25595 c0 -2 6 -8 13 -14 10 -8 14 -7 14 2 0 8 -6 14 -14 14
-7 0 -13 -1 -13 -2z"/>
<path d="M24463 25140 c0 -25 2 -35 4 -22 2 12 2 32 0 45 -2 12 -4 2 -4 -23z"/>
<path d="M25735 26773 c-67 -5 -84 -15 -66 -37 7 -9 14 -28 16 -43 2 -15 8
-59 14 -98 6 -39 10 -250 11 -482 0 -227 4 -413 8 -413 5 0 26 20 48 45 21 24
42 45 46 45 4 0 36 20 71 44 48 33 84 48 143 61 164 36 222 45 314 45 86 1 97
-1 112 -21 23 -27 23 -40 -3 -89 -13 -24 -28 -40 -39 -40 -10 0 -20 -8 -22
-17 -3 -16 -13 -17 -76 -15 -62 3 -81 0 -125 -22 -29 -14 -60 -27 -69 -30 -10
-3 -18 -15 -18 -26 0 -13 -7 -20 -19 -20 -30 0 -51 -11 -51 -26 0 -8 -4 -22
-9 -32 -30 -59 -36 -81 -36 -136 0 -35 10 -91 23 -134 19 -61 32 -82 81 -132
33 -33 76 -68 97 -78 22 -9 50 -25 64 -34 26 -17 151 -48 193 -48 47 0 149 58
192 108 11 13 32 38 48 55 36 41 98 171 130 272 18 57 27 113 32 195 3 63 11
136 17 162 9 36 9 54 0 73 -13 28 -16 173 -4 191 4 6 19 13 35 16 20 4 27 1
28 -11 0 -13 2 -13 8 2 9 24 14 25 34 9 11 -9 17 -10 22 -2 5 8 11 8 21 -1 8
-6 14 -8 14 -4 0 5 9 0 20 -10 15 -14 20 -31 20 -73 0 -31 2 -53 5 -50 3 3 6
52 6 108 0 89 -3 107 -20 131 -12 16 -21 37 -21 47 0 22 -22 73 -50 117 -11
17 -27 44 -36 60 -18 33 -105 137 -144 172 -84 76 -130 103 -234 141 -70 24
-75 25 -421 27 -192 1 -377 0 -410 -2z m1196 -542 c7 11 9 10 9 -3 0 -10 -8
-18 -17 -19 -10 0 -38 -3 -63 -5 -35 -4 -42 -3 -33 7 7 7 26 12 42 11 17 0 34
4 38 11 5 8 8 7 11 -2 4 -11 6 -11 13 0z m43 -9 c3 -5 -1 -9 -9 -9 -8 0 -12 4
-9 9 3 4 7 8 9 8 2 0 6 -4 9 -8z"/>
<path d="M27060 25916 c0 -16 5 -26 15 -26 8 0 15 6 15 14 0 7 -7 19 -15 26
-13 11 -15 8 -15 -14z"/>
<path d="M14496 22242 c-3 -6 -1 -14 5 -17 15 -10 25 3 12 16 -7 7 -13 7 -17
1z"/>
<path d="M15483 23273 c-14 -3 -23 -12 -23 -24 0 -13 -7 -19 -24 -19 -30 0
-40 -14 -27 -38 9 -16 6 -18 -20 -14 -28 4 -30 3 -23 -23 5 -19 3 -26 -7 -25
-33 5 -38 0 -32 -35 4 -26 2 -36 -11 -41 -9 -3 -22 -28 -30 -55 -8 -27 -19
-55 -23 -62 -12 -18 -53 -174 -63 -242 -30 -199 -19 -612 21 -785 44 -191 68
-257 152 -415 28 -51 101 -122 157 -150 44 -22 61 -26 97 -20 91 13 178 69
217 138 11 21 28 52 37 67 9 16 23 40 32 53 9 14 22 47 28 74 7 26 20 64 31
83 11 21 18 55 18 87 0 28 4 55 10 58 5 3 9 21 7 38 -1 25 2 32 16 31 16 -2
17 14 19 190 3 317 -2 459 -17 476 -7 8 -15 46 -19 84 -4 38 -15 87 -25 110
-10 23 -22 60 -26 83 -3 23 -13 47 -20 53 -8 6 -17 26 -21 43 -3 18 -15 43
-25 56 -11 13 -19 30 -19 37 0 17 -97 134 -118 141 -10 3 -27 15 -40 27 -19
17 -38 20 -115 22 -51 1 -102 0 -114 -3z"/>
<path d="M15290 23069 c0 -5 5 -7 10 -4 6 3 10 8 10 11 0 2 -4 4 -10 4 -5 0
-10 -5 -10 -11z"/>
<path d="M23181 12724 c0 -11 3 -14 6 -6 3 7 2 16 -1 19 -3 4 -6 -2 -5 -13z"/>
<path d="M28985 110 c-3 -5 -1 -10 4 -10 6 0 11 5 11 10 0 6 -2 10 -4 10 -3 0
-8 -4 -11 -10z"/>
<path d="M27100 301 c0 -11 5 -23 10 -26 6 -4 10 5 10 19 0 14 -4 26 -10 26
-5 0 -10 -9 -10 -19z"/>
<path d="M32610 16320 c0 -14500 2 -16320 15 -16320 13 0 15 1820 15 16320 0
14500 -2 16320 -15 16320 -13 0 -15 -1820 -15 -16320z"/>
<path d="M13778 20753 c-6 -8 -35 -13 -75 -13 -41 0 -72 -6 -88 -16 -13 -8
-51 -19 -86 -24 -69 -10 -90 -23 -71 -42 9 -9 66 -14 192 -16 109 -2 180 -8
180 -13 0 -6 4 -8 9 -5 5 3 11 -7 14 -23 3 -16 13 -36 23 -45 15 -15 18 -15
48 3 17 11 37 28 44 39 13 20 3 28 -62 48 -32 10 -38 19 -57 81 -10 36 -16 42
-36 41 -13 -2 -29 -8 -35 -15z"/>
<path d="M11486 19929 c-17 -14 -18 -19 -7 -33 20 -24 68 -20 96 9 14 13 25
28 25 33 0 15 -93 8 -114 -9z"/>
<path d="M12812 19361 c-60 -62 -77 -108 -39 -105 9 1 15 -2 12 -6 -3 -4 4
-10 15 -13 11 -3 22 -1 25 4 3 4 20 8 38 7 33 -1 92 27 129 62 12 11 25 20 30
20 13 0 9 44 -4 63 -9 11 -35 19 -80 23 l-67 7 -59 -62z"/>
<path d="M12389 19162 c-39 -5 -63 -36 -68 -85 -1 -4 -32 -7 -70 -5 -38 2 -67
6 -64 11 5 8 -10 10 -47 7 -14 -1 -26 -6 -28 -10 -2 -5 -10 -6 -18 -3 -8 3
-21 0 -29 -7 -18 -15 -31 -80 -17 -89 5 -3 12 -15 14 -26 3 -14 11 -19 28 -17
20 2 22 0 10 -8 -12 -8 -11 -10 7 -10 12 0 24 -4 27 -9 10 -16 158 -82 172
-77 8 3 17 14 21 23 4 10 10 21 15 24 5 3 9 27 10 53 3 59 24 75 70 52 17 -9
34 -14 36 -11 3 3 0 5 -6 5 -7 0 -12 6 -12 13 0 16 47 40 52 27 2 -5 10 -10
18 -12 8 -2 18 -7 22 -12 3 -5 14 -2 23 7 15 16 15 17 -2 18 -15 0 -14 2 5 11
12 6 22 17 22 25 0 8 5 11 10 8 6 -3 10 2 10 12 -1 24 -45 73 -65 73 -9 0 -14
4 -11 8 5 8 -85 11 -135 4z"/>
<path d="M9850 18961 c-51 -6 -55 -8 -61 -36 -11 -49 -10 -133 1 -140 6 -4 8
-10 5 -15 -9 -14 28 -21 63 -11 43 13 98 48 117 74 18 26 19 66 2 87 -14 19
-59 51 -67 48 -3 -1 -30 -4 -60 -7z"/>
<path d="M11857 18923 c-4 -3 -7 -17 -7 -30 0 -16 6 -23 19 -23 53 0 70 33 25
50 -30 12 -29 12 -37 3z"/>
<path d="M11886 18599 c-32 -5 -66 -15 -75 -23 -9 -8 -56 -19 -106 -25 -132
-17 -152 -20 -244 -47 -46 -13 -89 -24 -97 -24 -8 0 -14 -4 -14 -9 0 -5 -13
-23 -29 -40 l-28 -30 -94 5 c-68 5 -117 1 -179 -11 -47 -10 -109 -21 -138 -25
-40 -6 -62 -17 -92 -44 -22 -20 -48 -36 -58 -36 -15 0 -92 -55 -112 -81 -3 -3
-16 -12 -30 -19 -14 -7 -42 -26 -63 -43 l-38 -30 38 -17 c22 -9 70 -20 109
-24 89 -10 115 -16 108 -27 -3 -5 -1 -9 5 -9 5 0 12 6 14 13 3 6 6 2 6 -10 1
-20 -4 -23 -34 -23 -19 0 -35 5 -35 10 0 7 -8 6 -22 -2 -13 -7 -27 -11 -31
-10 -5 1 -6 -1 -3 -6 3 -5 -1 -18 -9 -28 -10 -13 -14 -15 -15 -5 0 22 -30 -8
-30 -30 0 -11 -6 -19 -14 -19 -8 0 -37 -18 -65 -40 -28 -22 -51 -37 -51 -33 0
5 -5 0 -11 -10 -5 -9 -7 -22 -3 -29 5 -8 2 -9 -9 -5 -14 5 -17 0 -18 -26 -1
-18 0 -38 1 -46 1 -8 -3 -17 -8 -20 -15 -9 -3 -56 20 -81 17 -18 18 -24 7 -31
-8 -5 -20 -9 -26 -10 -15 -2 -32 -6 -35 -8 -2 -2 -25 -4 -53 -6 -51 -4 -167
-22 -196 -31 -10 -3 -19 -21 -23 -46 -4 -22 -16 -52 -26 -66 -11 -13 -20 -32
-20 -40 0 -9 -6 -23 -14 -31 -21 -24 -37 -91 -23 -91 7 0 4 -7 -5 -14 -19 -14
-24 -46 -8 -46 6 0 10 -9 10 -20 0 -16 7 -20 33 -20 19 0 42 8 55 20 15 14 35
20 66 20 25 0 47 4 51 10 3 5 12 7 20 3 19 -7 44 14 56 46 9 23 10 23 24 5 10
-13 13 -14 10 -3 -5 12 1 15 29 15 36 -1 40 -16 3 -16 -17 0 -19 -2 -8 -9 8
-5 15 -21 17 -36 2 -21 -4 -31 -32 -47 -31 -18 -35 -25 -32 -57 2 -29 7 -37
27 -39 47 -7 71 6 71 38 0 27 3 30 30 30 17 0 30 4 30 9 0 4 11 6 24 4 29 -6
98 15 91 27 -3 4 4 10 15 13 39 10 17 97 -24 97 -10 0 -15 4 -11 9 3 5 0 13
-6 17 -8 5 -9 3 -4 -6 6 -10 4 -12 -9 -7 -10 4 -25 7 -34 7 -15 0 -15 2 -2 10
12 8 10 10 -9 10 -20 0 -22 3 -16 23 4 12 8 32 9 44 0 12 3 20 4 18 2 -2 23 4
45 14 23 9 57 16 75 15 17 -1 45 -2 61 -3 26 -1 29 -5 34 -43 5 -38 27 -68 49
-68 12 0 38 57 38 85 0 14 3 24 8 23 4 -1 21 5 37 12 17 7 34 12 39 11 5 -1 6
5 2 14 -3 10 -1 15 7 14 20 -3 47 12 47 27 0 21 19 17 52 -11 19 -16 37 -23
48 -20 10 3 21 1 25 -4 9 -16 80 26 110 65 15 19 44 42 66 52 23 10 37 22 34
29 -2 7 -1 13 4 13 5 0 12 11 15 25 9 36 44 73 76 80 47 10 163 97 263 197 57
58 108 100 124 104 37 9 76 46 93 89 10 25 20 35 35 35 21 0 81 37 195 119 30
22 61 40 68 41 6 0 12 4 12 8 0 5 16 14 35 22 19 7 36 19 39 25 2 7 18 15 35
18 24 5 31 12 31 30 0 30 -91 119 -145 141 -41 18 -167 20 -269 5z m-1442
-923 c-6 -15 -24 -23 -24 -11 0 8 24 34 28 30 1 -1 0 -10 -4 -19z m347 -159
c-6 -16 -18 -23 -43 -25 -32 -3 -36 0 -41 25 -6 34 -6 33 35 43 40 9 61 -10
49 -43z"/>
<path d="M8914 17515 c-3 -14 -10 -25 -15 -25 -5 0 -8 -3 -7 -7 3 -17 -16 -70
-40 -107 -21 -34 -24 -47 -18 -95 4 -30 10 -59 15 -65 11 -14 40 -100 47 -140
3 -17 7 -68 9 -113 2 -46 6 -96 10 -112 7 -34 38 -49 60 -31 18 15 21 116 3
122 -18 6 -25 135 -10 213 19 106 30 199 23 205 -4 3 -7 12 -7 20 0 8 -8 42
-18 75 -10 33 -20 66 -22 73 -6 21 -23 13 -30 -13z"/>
<path d="M9536 16773 c-3 -4 -13 -8 -21 -9 -38 -6 -92 -59 -127 -124 l-24 -46
108 -54 c59 -29 108 -57 108 -62 0 -4 5 -8 11 -8 5 0 7 6 4 13 -4 6 -1 5 7 -4
9 -10 27 -15 56 -14 23 2 42 -2 42 -6 0 -14 54 -10 75 5 22 16 30 80 12 95 -7
5 -26 12 -41 15 -40 7 -50 20 -50 61 0 19 -3 35 -8 35 -4 0 -5 6 -3 13 14 36
-121 118 -149 90z"/>
<path d="M9466 16123 c-55 -58 -76 -93 -86 -143 -14 -75 -12 -135 6 -178 8
-20 14 -38 13 -40 -5 -10 26 -62 37 -62 7 0 25 15 39 34 22 29 26 46 29 118 6
142 25 187 88 213 l43 17 -24 19 c-13 10 -20 19 -15 19 4 0 -1 7 -12 15 -32
25 -87 19 -118 -12z"/>
<path d="M20948 15843 c7 -3 16 -2 19 1 4 3 -2 6 -13 5 -11 0 -14 -3 -6 -6z"/>
<path d="M14275 15580 c-4 -6 -3 -16 3 -22 6 -6 12 -6 17 2 4 6 3 16 -3 22 -6
6 -12 6 -17 -2z"/>
<path d="M14395 15241 c-3 -5 -1 -12 5 -16 5 -3 10 1 10 9 0 18 -6 21 -15 7z"/>
<path d="M21616 15121 c-3 -5 -3 -22 0 -39 5 -22 13 -31 32 -35 42 -8 62 8 59
48 -2 34 -3 35 -44 35 -23 0 -44 -4 -47 -9z"/>
<path d="M19422 14878 c3 -7 13 -15 22 -16 12 -3 17 1 14 10 -3 7 -13 15 -22
16 -12 3 -17 -1 -14 -10z"/>
<path d="M7820 14749 c0 -5 5 -7 10 -4 6 3 10 8 10 11 0 2 -4 4 -10 4 -5 0
-10 -5 -10 -11z"/>
<path d="M19493 14173 c-14 -64 -15 -97 -2 -130 10 -27 11 -27 25 -9 21 30 17
186 -5 186 -4 0 -12 -21 -18 -47z"/>
<path d="M6757 13553 c-4 -3 -7 -11 -7 -17 0 -6 5 -5 12 2 6 6 9 14 7 17 -3 3
-9 2 -12 -2z"/>
<path d="M7405 13333 c-16 -3 -42 -14 -57 -25 -15 -10 -32 -16 -38 -13 -5 3
-10 1 -10 -5 0 -6 -5 -8 -12 -4 -6 4 -17 -1 -25 -12 -8 -10 -17 -18 -21 -16
-4 2 -11 -5 -17 -15 -5 -10 -14 -21 -19 -25 -12 -8 -14 -78 -2 -78 5 0 7 -3 3
-6 -12 -12 22 -34 60 -39 21 -3 52 -9 70 -14 44 -13 121 11 166 53 20 18 39
31 41 28 3 -2 5 4 5 14 0 11 2 32 5 47 5 33 -20 101 -34 92 -6 -3 -20 1 -32 9
-23 16 -28 17 -83 9z"/>
<path d="M11035 10990 c-142 -10 -135 -8 -135 -20 0 -12 599 -5 650 7 80 21
-263 29 -515 13z"/>
<path d="M15265 10790 c28 -12 212 -12 220 0 4 6 -37 10 -117 9 -78 0 -116 -4
-103 -9z"/>
<path d="M15603 10749 c-43 -16 -23 -27 77 -39 63 -8 106 -19 117 -29 18 -16
122 -44 213 -57 25 -4 53 -11 63 -16 10 -5 68 -23 130 -39 62 -17 137 -37 167
-45 30 -9 76 -19 102 -24 25 -5 57 -15 70 -23 13 -9 52 -23 88 -32 36 -9 97
-25 135 -35 39 -11 92 -22 120 -25 27 -3 70 -16 95 -28 25 -13 68 -30 95 -37
28 -7 61 -21 75 -31 14 -9 52 -25 85 -34 33 -9 69 -23 80 -30 11 -6 52 -20 90
-30 39 -9 88 -27 110 -40 22 -13 57 -28 79 -35 21 -7 55 -23 74 -36 20 -14 47
-27 61 -31 14 -3 44 -16 67 -30 23 -13 64 -30 93 -39 28 -8 51 -19 51 -24 0
-4 21 -16 48 -25 26 -9 75 -30 109 -46 34 -16 66 -29 72 -29 7 0 24 -8 38 -17
14 -10 47 -25 72 -34 25 -9 64 -28 85 -42 21 -15 43 -27 48 -27 17 0 171 -80
193 -99 11 -10 38 -28 60 -40 38 -21 91 -52 164 -96 18 -11 44 -29 58 -39 15
-11 51 -32 82 -48 94 -47 167 -96 199 -133 17 -19 36 -35 41 -35 5 0 31 -19
57 -43 27 -23 69 -56 94 -72 50 -32 190 -168 190 -184 0 -5 10 -17 23 -26 39
-27 169 -218 213 -315 9 -19 29 -62 45 -95 16 -33 29 -67 29 -76 0 -9 8 -27
19 -40 10 -13 26 -58 35 -100 27 -120 53 -140 75 -55 18 71 13 128 -15 192
-55 125 -136 284 -143 284 -5 0 -21 24 -35 53 -52 103 -120 191 -246 315 -92
92 -144 134 -236 192 -13 8 -28 25 -35 37 -6 12 -24 27 -40 33 -15 7 -36 21
-46 32 -10 11 -36 29 -58 41 -22 11 -46 28 -53 38 -7 10 -57 41 -110 69 -53
27 -119 68 -147 90 -27 22 -68 52 -90 67 -54 37 -206 113 -227 113 -10 0 -32
13 -50 29 -18 15 -49 31 -69 35 -21 4 -48 15 -60 24 -13 10 -46 26 -74 36 -27
11 -57 25 -66 32 -8 8 -19 14 -23 14 -5 0 -36 13 -70 29 -97 46 -271 119 -302
127 -16 4 -52 20 -80 36 -28 15 -58 28 -68 28 -9 0 -36 9 -59 21 -44 22 -270
99 -290 99 -7 0 -41 14 -75 30 -35 17 -83 33 -105 36 -23 4 -55 15 -72 24 -16
10 -48 21 -70 25 -57 10 -125 31 -162 50 -17 9 -69 23 -115 31 -46 8 -97 22
-114 30 -18 7 -65 20 -105 28 -41 8 -91 24 -112 34 -25 14 -69 23 -132 27 -79
6 -99 11 -119 30 -18 17 -46 26 -113 35 -48 7 -113 21 -144 31 -31 10 -87 21
-125 24 -38 4 -78 8 -89 10 -11 2 -30 -1 -42 -6z"/>
<path d="M8145 9118 c-4 -24 -7 -47 -6 -51 1 -4 2 -18 3 -31 1 -12 8 -28 14
-34 10 -9 14 -5 19 18 4 17 13 33 21 38 11 6 10 16 -8 55 -12 26 -25 47 -29
47 -3 0 -10 -19 -14 -42z"/>
<path d="M24040 8765 c0 -8 5 -15 10 -15 6 0 10 7 10 15 0 8 -4 15 -10 15 -5
0 -10 -7 -10 -15z"/>
<path d="M23913 8753 c20 -2 54 -2 75 0 20 2 3 4 -38 4 -41 0 -58 -2 -37 -4z"/>
<path d="M7896 8723 c-12 -13 -6 -53 9 -53 9 0 15 9 15 24 0 26 -12 40 -24 29z"/>
<path d="M23496 8445 c-10 -8 -15 -19 -10 -26 4 -8 3 -10 -4 -5 -8 5 -12 -6
-12 -35 0 -30 7 -52 26 -76 33 -43 62 -44 55 -1 0 4 5 5 12 2 10 -3 12 10 11
55 -1 32 -5 69 -9 80 -7 24 -41 27 -69 6z"/>
<path d="M21980 8396 c-19 -7 -35 -19 -35 -26 0 -31 151 -54 196 -30 28 15 24
49 -7 60 -34 13 -111 11 -154 -4z"/>
<path d="M25375 8370 c3 -5 10 -10 16 -10 5 0 9 5 9 10 0 6 -7 10 -16 10 -8 0
-12 -4 -9 -10z"/>
<path d="M23229 8274 c-30 -12 -36 -20 -37 -45 0 -17 -11 -63 -23 -102 -12
-40 -22 -76 -23 -82 -2 -17 -76 -86 -86 -80 -5 3 -10 2 -10 -2 0 -5 -20 -15
-45 -22 -51 -15 -50 -21 3 -36 37 -11 56 -35 66 -86 3 -15 13 -29 21 -33 8 -3
14 -1 12 5 -1 5 9 15 23 23 44 23 103 51 112 52 4 1 12 2 16 3 15 2 52 42 47
50 -2 5 2 14 10 21 8 7 15 19 15 27 0 8 9 26 20 40 11 14 20 32 20 39 0 8 5
14 11 14 5 0 8 4 5 9 -4 5 -1 33 5 62 8 36 8 54 1 57 -5 1 -8 12 -5 22 5 20
-20 54 -31 43 -3 -3 -15 2 -26 12 -11 10 -20 14 -20 10 0 -5 -5 -4 -12 3 -15
15 -24 15 -69 -4z"/>
<path d="M24074 8139 c1 -49 4 -65 14 -62 7 3 12 -3 12 -16 0 -17 6 -21 34
-21 43 0 66 9 66 25 0 6 9 20 20 30 12 11 20 31 20 52 0 30 -3 33 -30 33 -17
0 -41 7 -54 15 -13 9 -37 15 -53 13 l-29 -2 0 -67z"/>
<path d="M20165 8167 c-16 -18 -38 -125 -37 -185 0 -64 20 -98 61 -104 28 -4
33 0 57 47 23 43 31 51 51 47 18 -3 23 0 23 17 0 12 6 24 14 27 21 8 -2 76
-24 72 -9 -2 -31 14 -50 35 -26 30 -38 37 -56 33 -15 -4 -24 -1 -26 8 -2 10
-6 11 -13 3z"/>
<path d="M19930 8103 c-32 -92 -29 -148 12 -270 19 -57 31 -106 26 -111 -16
-16 -48 -117 -48 -153 0 -22 -8 -45 -20 -59 -11 -13 -20 -30 -20 -38 0 -16 -8
-44 -41 -143 -11 -31 -19 -83 -19 -117 0 -88 -17 -160 -40 -167 -14 -4 -20
-19 -24 -58 -7 -76 -6 -97 5 -97 5 0 9 5 9 11 0 23 35 85 61 109 23 20 29 36
33 85 7 67 20 121 35 139 21 25 42 102 46 164 3 42 10 71 24 88 10 13 27 48
36 77 16 50 18 53 46 49 36 -5 37 -19 9 -128 -19 -79 -19 -79 1 -99 18 -18 21
-19 47 -4 25 14 27 19 23 64 -2 28 -9 61 -16 75 -7 14 -16 45 -20 70 -6 41 -4
46 17 55 13 6 23 17 22 25 -1 9 5 21 12 28 11 10 14 10 14 1 0 -7 3 -10 6 -7
6 6 -22 78 -30 78 -3 0 -3 -8 1 -17 3 -10 3 -15 -2 -11 -10 9 -35 -17 -35 -37
0 -29 -18 -6 -24 32 -19 108 -21 133 -15 188 7 73 -2 109 -35 142 -14 14 -33
43 -43 64 -9 22 -20 39 -24 39 -3 0 -17 -30 -29 -67z"/>
<path d="M8463 8132 c-6 -4 -25 -36 -42 -72 -24 -47 -31 -73 -27 -95 4 -19 3
-25 -3 -17 -6 10 -10 3 -15 -22 -4 -20 -11 -36 -16 -36 -13 0 -13 -47 0 -55 6
-4 20 -25 31 -48 20 -37 20 -45 9 -94 -7 -29 -18 -53 -23 -53 -6 0 -7 -3 -4
-7 4 -3 2 -12 -3 -19 -8 -8 -7 -16 3 -25 7 -8 19 -41 26 -74 11 -47 15 -56 22
-40 4 11 8 32 8 47 1 39 22 78 41 78 17 0 94 -52 121 -82 16 -18 17 -17 23 4
10 38 7 87 -10 152 -11 42 -14 76 -8 111 4 28 7 82 7 120 1 57 -4 79 -26 120
-14 28 -32 57 -39 65 -21 25 -64 49 -75 42z"/>
<path d="M21975 8120 c-8 -13 5 -80 16 -80 11 0 23 66 14 79 -8 14 -22 14 -30
1z"/>
<path d="M26460 8010 c0 -5 5 -10 10 -10 6 0 10 5 10 10 0 6 -4 10 -10 10 -5
0 -10 -4 -10 -10z"/>
<path d="M26500 7980 c0 -11 5 -20 10 -20 6 0 10 9 10 20 0 11 -4 20 -10 20
-5 0 -10 -9 -10 -20z"/>
<path d="M23524 7982 c-14 -10 -34 -74 -27 -85 3 -6 1 -7 -5 -3 -7 4 -20 2
-29 -3 -10 -6 -13 -11 -8 -11 6 0 3 -5 -5 -10 -13 -9 -12 -12 4 -25 11 -8 28
-15 37 -15 10 0 21 -4 24 -10 10 -16 32 -12 60 13 21 18 25 28 20 50 -4 15
-14 27 -24 27 -10 0 -12 3 -5 8 7 5 3 18 -11 39 -12 17 -26 28 -31 25z"/>
<path d="M21723 7936 c-16 -18 -6 -26 31 -26 33 0 64 14 50 23 -24 14 -70 16
-81 3z"/>
<path d="M21153 7880 c-31 -13 -29 -38 4 -51 27 -10 116 5 137 23 31 26 -87
50 -141 28z"/>
<path d="M20522 7740 c0 -14 2 -19 5 -12 2 6 2 18 0 25 -3 6 -5 1 -5 -13z"/>
<path d="M20458 7643 c-10 -2 -18 -8 -18 -13 0 -5 -12 -10 -27 -12 -21 -2 -27
-8 -25 -22 2 -11 -2 -30 -9 -43 -11 -20 -10 -25 7 -39 10 -8 12 -12 4 -8 -12
6 -13 4 -3 -6 11 -11 17 -10 36 8 13 12 29 22 35 22 7 0 12 8 13 18 0 15 2 14
10 -3 7 -16 8 -14 4 10 -3 17 -6 45 -7 63 -1 17 -2 31 -3 31 0 -1 -8 -3 -17
-6z"/>
<path d="M21035 7541 c-6 -11 9 -23 19 -14 9 9 7 23 -3 23 -6 0 -12 -4 -16 -9z"/>
<path d="M19865 6610 c-3 -5 -1 -10 4 -10 6 0 11 -9 11 -20 0 -26 -16 -26 -23
1 -3 12 -12 19 -19 17 -16 -6 -22 -33 -13 -56 5 -13 8 -14 14 -3 6 9 11 10 15
2 15 -23 46 8 46 44 0 34 -20 49 -35 25z"/>
<path d="M11285 6390 c-4 -6 9 -10 32 -9 30 0 34 2 18 9 -27 12 -43 12 -50 0z"/>
<path d="M19575 6390 c-3 -5 -1 -10 4 -10 6 0 11 5 11 10 0 6 -2 10 -4 10 -3
0 -8 -4 -11 -10z"/>
<path d="M17283 6020 c-13 -5 -23 -14 -23 -20 0 -5 -5 -10 -11 -10 -6 0 -24
-11 -41 -25 -16 -14 -37 -25 -46 -25 -87 0 -161 -67 -148 -133 10 -49 67 -124
103 -135 28 -9 34 -7 63 23 44 45 91 53 135 24 32 -22 36 -32 50 -112 4 -25 0
-30 -43 -49 -26 -11 -54 -24 -62 -28 -29 -14 -34 -55 -17 -132 31 -147 39
-279 26 -462 -9 -133 -9 -187 0 -241 6 -38 18 -108 25 -155 8 -47 19 -98 25
-113 6 -16 11 -39 11 -51 0 -13 8 -34 18 -47 10 -13 35 -64 57 -114 34 -81 39
-102 46 -207 4 -65 17 -164 29 -220 29 -136 28 -306 -2 -324 -12 -8 26 -44 47
-44 9 0 18 -6 21 -14 3 -8 16 -22 29 -30 23 -15 24 -14 49 30 29 52 34 114 17
184 -22 87 -25 165 -6 213 16 42 16 48 -1 113 -13 54 -15 91 -10 180 5 86 3
129 -9 179 -21 91 -19 119 10 164 43 64 42 98 -2 156 -44 57 -61 86 -98 168
-42 91 -49 167 -35 393 6 109 11 228 10 263 -1 35 6 105 14 155 24 144 36 233
36 260 0 14 11 50 25 80 35 77 34 102 -7 109 -23 3 -42 -2 -62 -16 -27 -19
-29 -19 -57 -3 -34 20 -133 29 -166 16z m128 -482 c6 -47 -5 -119 -13 -93 -3
11 -5 38 -4 60 1 26 -3 44 -13 52 -14 11 -13 12 5 13 17 0 23 -7 25 -32z"/>
<path d="M17917 5336 c-4 -15 -6 -31 -2 -34 10 -10 16 6 13 35 l-3 28 -8 -29z"/>
<path d="M24527 2884 c-9 -10 2 -24 19 -24 8 0 14 7 14 15 0 15 -21 21 -33 9z"/>
<path d="M24455 2810 c3 -5 11 -10 16 -10 6 0 7 5 4 10 -3 6 -11 10 -16 10 -6
0 -7 -4 -4 -10z"/>
<path d="M24590 1140 c-6 -12 -8 -30 -4 -42 5 -16 3 -19 -7 -12 -12 7 -12 5 0
-9 7 -9 11 -22 8 -29 -3 -9 9 -14 41 -16 25 -1 59 -9 75 -17 24 -12 34 -13 55
-2 32 15 37 30 17 51 -9 9 -13 21 -9 27 5 8 1 8 -14 0 -15 -8 -23 -7 -32 4 -7
8 -15 14 -18 13 -27 -3 -62 4 -57 11 3 6 -4 8 -15 6 -18 -3 -25 5 -21 28 2 14
-8 7 -19 -13z"/>
<path d="M25737 720 c10 -11 19 -20 20 -20 2 0 3 9 3 20 0 13 -7 20 -20 20
-19 0 -19 -1 -3 -20z"/>
<path d="M25563 595 c0 -30 15 -43 23 -21 3 9 10 13 15 10 13 -8 11 10 -3 24
-20 20 -35 14 -35 -13z"/>
<path d="M31300 480 c0 -17 7 -20 50 -20 28 0 50 5 50 10 0 6 -9 10 -20 10
-11 0 -20 5 -20 10 0 6 -13 10 -30 10 -23 0 -30 -4 -30 -20z"/>
<path d="M31480 469 c0 -5 5 -7 10 -4 6 3 10 8 10 11 0 2 -4 4 -10 4 -5 0 -10
-5 -10 -11z"/>
<path d="M32272 430 c0 -14 2 -19 5 -12 2 6 2 18 0 25 -3 6 -5 1 -5 -13z"/>
<path d="M25038 423 c-33 -39 -58 -173 -58 -315 l0 -108 124 0 124 0 -15 63
c-8 34 -18 85 -24 112 -5 28 -16 62 -25 78 -8 15 -12 36 -9 47 10 31 -16 99
-46 121 -34 24 -52 24 -71 2z"/>
<path d="M32240 380 c0 -22 5 -40 10 -40 6 0 10 18 10 40 0 22 -4 40 -10 40
-5 0 -10 -18 -10 -40z"/>
<path d="M24080 350 c0 -5 5 -10 10 -10 6 0 10 5 10 10 0 6 -4 10 -10 10 -5 0
-10 -4 -10 -10z"/>
<path d="M32240 294 c0 -31 23 -28 28 4 2 15 -2 22 -12 22 -11 0 -16 -9 -16
-26z"/>
<path d="M31060 210 c0 -5 5 -10 10 -10 6 0 10 5 10 10 0 6 -4 10 -10 10 -5 0
-10 -4 -10 -10z"/>
<path d="M31100 210 c0 -5 5 -10 11 -10 5 0 7 5 4 10 -3 6 -8 10 -11 10 -2 0
-4 -4 -4 -10z"/>
<path d="M31140 210 c0 -5 14 -10 30 -10 17 0 30 5 30 10 0 6 -13 10 -30 10
-16 0 -30 -4 -30 -10z"/>
<path d="M26243 160 c-1 -11 2 -20 8 -20 5 0 9 9 9 20 0 11 -4 20 -8 20 -4 0
-8 -9 -9 -20z"/>
<path d="M26785 121 c-3 -5 -1 -12 5 -16 5 -3 10 1 10 9 0 18 -6 21 -15 7z"/>
</g>
</svg>
